<svg width="73" height="36" viewBox="0 0 73 36" fill="none" xmlns="http://www.w3.org/2000/svg">
<g clip-path="url(#clip0)">
<path d="M16.187 15.1578H5.07826C3.96739 15.1578 3.01522 14.6842 2.22174 13.8947C1.26957 12.9473 0.793478 12.1578 0.476087 11.0526C0.158696 9.94732 0 8.99995 0 7.89469C0 6.78943 0.158696 5.68416 0.476087 4.73679C0.793478 3.63153 1.26957 2.84206 2.06304 1.89469C2.85652 1.10522 3.8087 0.631531 4.91957 0.631531H16.0283V3.94732H5.87174C5.23696 3.94732 4.76087 4.26311 4.28478 4.73679C3.8087 5.21048 3.4913 5.68416 3.33261 6.31574C3.17391 6.63153 3.01522 7.26311 3.01522 7.89469C3.01522 8.52627 3.17391 8.99995 3.33261 9.63153C3.4913 10.2631 3.8087 10.7368 4.28478 11.2105C4.76087 11.6842 5.23696 11.8421 5.87174 12H16.187V15.1578ZM5.39565 6.15785H16.0283V9.47364H5.39565V6.15785Z" fill="white"/>
<path d="M73.0009 35.6842H61.8922C60.7813 35.6842 59.8292 35.2105 59.0357 34.4211C58.2422 33.6316 57.7661 32.6842 57.4487 31.579C57.1314 30.4737 56.9727 29.5263 56.9727 28.4211C56.9727 27.3158 57.1314 26.2105 57.4487 25.2632C57.7661 24.1579 58.2422 23.3684 59.0357 22.4211C59.8292 21.6316 60.7813 21.1579 61.8922 21.1579H73.0009V24.4737H62.6857C62.0509 24.4737 61.5748 24.7895 61.0987 25.2632C60.6227 25.7368 60.3053 26.2105 60.1466 26.8421C59.9879 27.4737 59.8292 27.9474 59.8292 28.579C59.8292 29.2105 59.9879 29.6842 60.1466 30.3158C60.3053 30.9474 60.6227 31.4211 61.0987 31.8947C61.5748 32.3684 62.0509 32.5263 62.6857 32.6842H73.0009V35.6842ZM62.2096 26.6842H72.8422V30H62.2096V26.6842Z" fill="white"/>
<path d="M24.2795 9.63158H29.6751L29.0404 7.89474C28.723 7.26316 28.5643 6.63158 28.2469 6C27.9295 5.36842 27.7708 4.89474 27.4534 4.42105C27.136 3.94737 26.8186 3.63158 26.5012 3.63158C26.0251 3.63158 25.7077 3.94737 25.3904 4.42105C25.073 4.89474 24.7556 5.52632 24.5969 6C24.2795 6.63158 24.1208 7.26316 23.8034 7.89474L21.1056 15.4737H17.2969L20.9469 6.1579C21.7404 4.26316 22.5338 2.84211 23.1686 1.73684C23.8034 0.631579 24.9143 0 26.3425 0C27.7708 0 28.8817 0.631579 29.5164 1.73684C30.3099 2.84211 31.1034 4.26316 31.7382 6.1579L35.3882 15.4737H31.7382L30.786 12.9474H24.2795V9.63158Z" fill="white"/>
<path d="M37.294 11.6842H48.8787C49.1961 11.6842 49.5135 11.6842 49.6722 11.5263C49.8309 11.3684 49.9896 11.2105 50.1483 11.0526C50.307 10.8947 50.307 10.7368 50.307 10.421C50.307 10.2631 50.307 10.1052 50.1483 9.94731C49.9896 9.78942 49.8309 9.47363 49.6722 9.47363C49.5135 9.31573 49.1961 9.31573 48.8787 9.31573H41.8961C40.7853 9.31573 39.8331 8.99995 39.0396 8.52626C38.2461 8.05258 37.77 7.421 37.4527 6.78942C37.1353 6.15784 36.9766 5.52626 36.9766 4.73679C36.9766 4.10521 37.1353 3.47363 37.4527 2.84205C37.77 2.21047 38.2461 1.57889 39.0396 1.10521C39.8331 0.631524 40.7853 0.315735 41.8961 0.315735H42.0548C42.2135 0.315735 42.2135 0.315735 42.3722 0.315735H53.3222V3.63152H41.7374C41.42 3.63152 41.1026 3.78942 40.944 3.78942C40.7853 3.94731 40.6266 4.10521 40.4679 4.2631C40.3092 4.421 40.3092 4.57889 40.3092 4.73679C40.3092 4.89468 40.3092 5.05258 40.4679 5.21047C40.6266 5.36837 40.7853 5.52626 40.944 5.68416C41.1026 5.84205 41.42 5.84205 41.7374 5.84205H48.72C49.8309 5.84205 50.7831 6.15784 51.5766 6.63152C52.37 7.10521 52.8461 7.73679 53.1635 8.36837C53.4809 8.99995 53.6396 9.63152 53.6396 10.421C53.6396 11.0526 53.4809 11.8421 53.1635 12.4736C52.8461 13.1052 52.37 13.7368 51.5766 14.2105C50.7831 14.6842 49.8309 14.9999 48.72 14.9999H48.5613C48.4027 14.9999 48.4027 14.9999 48.244 14.9999H37.294V11.6842Z" fill="white"/>
<path d="M57.1323 11.8422H66.8128C67.4476 11.8422 67.9236 11.5264 68.3997 11.0527C68.7171 10.579 69.0345 10.1053 69.1932 9.63164H61.5758C60.4649 9.63164 59.5128 9.15796 58.7193 8.52638C57.9258 7.73691 57.4497 6.94743 57.1323 5.84217C56.8149 4.73691 56.6562 3.63164 56.6562 2.52638V0.157959H59.9889V0.631643C59.9889 1.26322 59.9889 3.47375 60.1476 4.10533C60.3063 4.73691 60.4649 5.21059 60.941 5.68428C61.4171 6.15796 61.8932 6.31585 62.528 6.47375H69.5106V0.315854H72.8432V7.57901C72.8432 8.84217 72.6845 10.1053 72.3671 11.3685C72.0497 12.4737 71.4149 13.2632 70.7802 14.0527C69.9867 14.6843 69.0345 15.158 67.9236 15.158H57.1323V11.8422Z" fill="white"/>
<path d="M20.1562 32.3685H26.5041V24.4737H20.1562V21.158H36.1845V24.4737H29.8367V32.3685H36.1845V35.6843H20.1562V32.3685Z" fill="white"/>
<path d="M38.7227 21.1579H49.514C50.6248 21.1579 51.577 21.6316 52.3705 22.4211C53.164 23.2105 53.6401 24.1579 53.9574 25.2632C54.2748 26.3684 54.4335 27.3158 54.4335 28.4211C54.4335 29.5263 54.2748 30.6316 53.9574 31.579C53.6401 32.6842 53.164 33.4737 52.3705 34.4211C51.577 35.2105 50.6248 35.6842 49.514 35.6842H40.3096C39.8335 35.6842 39.5161 35.5263 39.1987 35.2105C38.8814 34.8947 38.7227 34.579 38.7227 34.1053V26.3684H42.0553V31.7368C42.0553 32.2105 42.214 32.3684 42.69 32.3684H48.5618C49.1966 32.3684 49.6727 32.0526 50.1487 31.579C50.6248 31.1053 50.7835 30.6316 51.1009 30C51.2596 29.3684 51.4183 28.8947 51.4183 28.2632C51.4183 27.6316 51.2596 27.1579 51.1009 26.5263C50.9422 25.8947 50.6248 25.4211 50.1487 24.9474C49.6727 24.4737 49.1966 24.3158 48.5618 24.1579H38.7227V21.1579Z" fill="white"/>
<path d="M6.50749 26.6842H13.014C13.3314 26.6842 13.6488 26.5263 13.8075 26.5263C13.9662 26.3684 14.1249 26.2105 14.2836 26.0526C14.4423 25.8947 14.4423 25.7368 14.4423 25.579C14.4423 25.4211 14.4423 25.2632 14.2836 25.1053C14.1249 24.9474 13.9662 24.7895 13.8075 24.6316C13.6488 24.4737 13.3314 24.4737 13.014 24.4737H4.28575C3.80966 24.4737 3.65097 24.6316 3.65097 25.1053V36H0.318359V22.7368C0.318359 22.2632 0.477055 21.9474 0.794446 21.6316C1.11184 21.3158 1.58792 21.1579 2.06401 21.1579H12.3792C12.5379 21.1579 12.5379 21.1579 12.6966 21.1579H12.8553C13.9662 21.1579 14.9184 21.4737 15.7118 21.9474C16.5053 22.4211 16.9814 23.0526 17.2988 23.6842C17.6162 24.3158 17.7749 24.9474 17.7749 25.579C17.7749 26.2105 17.6162 26.8421 17.2988 27.4737C16.9814 28.1053 16.5053 28.7368 15.7118 29.2105C14.9184 29.6842 13.9662 30 12.8553 30H8.57053C8.72923 30.7895 9.04662 31.4211 9.36401 31.8947C9.8401 32.3684 10.3162 32.5263 10.951 32.5263H17.9336V35.8421H10.4749C9.20532 35.8421 8.09445 35.3684 7.14227 34.4211C6.1901 33.4737 5.55532 32.3684 5.39662 30.9474C5.07923 29.6842 5.07923 29.3684 5.07923 28.7368C5.07923 28.579 5.07923 28.2632 4.92053 28.1053L4.76184 26.6842H6.50749Z" fill="white"/>
</g>
<defs>
<clipPath id="clip0">
<rect width="73" height="36" fill="white"/>
</clipPath>
</defs>
</svg>
