<svg width="119" height="57" viewBox="0 0 119 57" fill="none" xmlns="http://www.w3.org/2000/svg">
<path d="M89.1463 14.6291C90.49 13.2819 92.1375 12.6083 94.089 12.6083C96.0405 12.6083 97.6881 13.2819 99.0317 14.6291C100.375 15.9763 101.047 17.6283 101.047 19.585C101.047 21.5416 100.375 23.1936 99.0317 24.5408C97.6881 25.888 96.0405 26.5616 94.089 26.5616C92.1375 26.5616 90.49 25.888 89.1463 24.5408C87.8027 23.1936 87.1309 21.5416 87.1309 19.585C87.1309 17.6283 87.8027 15.9763 89.1463 14.6291ZM94.089 23.9153C95.2407 23.9153 96.2005 23.4983 96.9683 22.6643C97.7681 21.7982 98.168 20.7718 98.168 19.585C98.168 18.3981 97.7681 17.3877 96.9683 16.5537C96.2005 15.6876 95.2407 15.2546 94.089 15.2546C92.9693 15.2546 92.0096 15.6876 91.2098 16.5537C90.41 17.3877 90.0101 18.3981 90.0101 19.585C90.0101 20.7718 90.41 21.7982 91.2098 22.6643C92.0096 23.4983 92.9693 23.9153 94.089 23.9153ZM93.2404 45.0566C92.7271 44.7531 92.5543 44.0927 92.8531 43.5766L110.447 13.1927C110.743 12.6824 111.394 12.5053 111.907 12.7956C112.428 13.0899 112.608 13.7522 112.309 14.2698L94.7343 44.6651C94.4318 45.1883 93.7606 45.3642 93.2404 45.0566ZM106.134 33.394C107.478 32.0467 109.125 31.3731 111.077 31.3731C113.028 31.3731 114.676 32.0467 116.019 33.394C117.363 34.7412 118.035 36.3931 118.035 38.3498C118.035 40.3065 117.363 41.9584 116.019 43.3056C114.676 44.6529 113.028 45.3265 111.077 45.3265C109.125 45.3265 107.478 44.6529 106.134 43.3056C104.79 41.9584 104.118 40.3065 104.118 38.3498C104.118 36.3931 104.79 34.7412 106.134 33.394ZM111.077 42.6801C112.228 42.6801 113.188 42.2631 113.956 41.4292C114.756 40.5631 115.156 39.5366 115.156 38.3498C115.156 37.163 114.756 36.1525 113.956 35.3186C113.188 34.4525 112.228 34.0194 111.077 34.0194C109.957 34.0194 108.997 34.4525 108.197 35.3186C107.398 36.1525 106.998 37.163 106.998 38.3498C106.998 39.5366 107.398 40.5631 108.197 41.4292C108.997 42.2631 109.957 42.6801 111.077 42.6801Z" fill="black"/>
<path d="M16.9997 57.0007L14.2342 54.877L26.2723 37.6423C23.9406 38.6224 21.4733 39.1125 18.8705 39.1125C13.4479 39.1125 8.94722 37.3155 5.36833 33.7216C1.78944 30.1276 0 25.5807 0 20.0808C0 14.5809 1.81656 10.0068 5.44967 6.35838C9.08278 2.70996 13.7191 0.885742 19.3585 0.885742C24.8895 0.885742 29.4716 2.70996 33.1047 6.35838C36.7378 10.0068 38.5544 14.6082 38.5544 20.1625C38.5544 24.1376 37.3885 27.8405 35.0568 31.2711L16.9997 57.0007ZM30.3392 8.72713C27.411 5.67771 23.7237 4.15299 19.2772 4.15299C14.8307 4.15299 11.1162 5.67771 8.13384 8.72713C5.20566 11.7766 3.74156 15.5339 3.74156 19.9991C3.74156 24.6277 5.20566 28.4395 8.13384 31.4345C11.1162 34.375 14.8307 35.8453 19.2772 35.8453C23.7779 35.8453 27.4924 34.3478 30.4205 31.3528C33.3487 28.3578 34.8128 24.5733 34.8128 19.9991C34.8128 15.4794 33.3216 11.7221 30.3392 8.72713Z" fill="black"/>
<path d="M76.1479 1.62087V4.88812H57.9281L53.3732 19.5907C54.6746 19.264 55.8947 19.1006 57.0334 19.1006C62.7271 19.1006 67.2821 20.8704 70.6983 24.4099C74.1687 27.9494 75.9039 32.4691 75.9039 37.969C75.9039 43.6867 74.0331 48.288 70.2916 51.7731C66.6042 55.2582 62.0493 57.0007 56.6267 57.0007C49.252 57.0007 43.8295 54.0057 40.3591 48.0158L43.5312 46.7089C46.6763 51.3919 51.0686 53.7335 56.7081 53.7335C61.2088 53.7335 64.8961 52.2632 67.7701 49.3227C70.6983 46.3821 72.1624 42.6248 72.1624 38.0507C72.1624 33.4221 70.7254 29.6647 67.8514 26.7787C65.0317 23.8381 61.3715 22.3679 56.8707 22.3679C53.7799 22.3679 50.9602 23.1575 48.4115 24.7366L55.4067 1.62087H76.1479Z" fill="black"/>
</svg>
