<svg width="44" height="45" viewBox="0 0 44 45" fill="none" xmlns="http://www.w3.org/2000/svg">
<path d="M39.9616 4.09279C37.7351 1.83408 34.7955 0.415546 31.6419 0.0780201C28.4882 -0.259506 25.315 0.504781 22.6609 2.24112C20.0068 3.97746 18.0354 6.57883 17.0814 9.60358C16.1274 12.6283 16.2496 15.89 17.4273 18.8349L1.36659 34.978C-0.31822 36.6994 0.0297302 38.1004 0.0297302 43.109C0.0297302 43.3519 0.126201 43.5848 0.297921 43.7565C0.46964 43.9282 0.702542 44.0247 0.94539 44.0247H7.81283C8.11345 44.0247 8.41112 43.9655 8.68885 43.8504C8.96659 43.7354 9.21894 43.5668 9.43151 43.3542C9.64407 43.1416 9.81269 42.8893 9.92773 42.6116C10.0428 42.3338 10.102 42.0362 10.102 41.7355C10.102 41.6141 10.1502 41.4977 10.2361 41.4118C10.3219 41.3259 10.4384 41.2777 10.5598 41.2777H11.4755C12.0826 41.2777 12.6648 41.0365 13.0941 40.6072C13.5234 40.1779 13.7646 39.5957 13.7646 38.9886C13.7646 36.6445 13.4808 37.3587 14.9275 35.9211C15.1015 35.738 15.1015 35.7838 16.9694 35.7838C17.5765 35.7838 18.1588 35.5426 18.5881 35.1133C19.0174 34.684 19.2586 34.1017 19.2586 33.4946V31.7732C19.2586 31.5076 18.9564 31.8922 24.487 26.3616C24.5969 26.2426 24.3313 26.2426 25.2378 26.5905C26.8326 27.2203 28.5319 27.5434 30.2465 27.5428C42.5438 27.5428 48.5597 12.6542 39.9616 4.09279ZM17.4273 33.4946C17.4273 34.0715 16.9236 33.9524 15.248 33.9524C14.1126 33.9524 13.6364 34.6117 12.6017 35.6464C11.2099 37.0382 12.5559 39.4464 11.4755 39.4464H10.5598C9.95269 39.4464 9.37044 39.6876 8.94114 40.1169C8.51184 40.5462 8.27066 41.1284 8.27066 41.7355C8.27066 41.857 8.22243 41.9734 8.13657 42.0593C8.05071 42.1451 7.93426 42.1934 7.81283 42.1934H1.86105V38.2103C1.86105 36.6262 1.53141 37.4045 18.3429 20.5838C18.8035 21.3866 19.3433 22.1412 19.9545 22.8363L5.3314 37.4228C5.20226 37.5509 5.11419 37.7145 5.07842 37.8928C5.04264 38.0711 5.06079 38.2561 5.13053 38.424C5.20027 38.592 5.31846 38.7354 5.47002 38.836C5.62158 38.9365 5.79964 38.9896 5.98152 38.9886C6.52175 38.9886 5.34971 40.0049 21.2181 24.1366C21.7347 24.5934 22.2857 25.0097 22.8663 25.3819C16.7955 31.4618 17.4273 30.1341 17.4273 33.4946ZM38.6614 22.2228C36.9969 23.8882 34.8759 25.0225 32.5667 25.4823C30.2574 25.9421 27.8637 25.7068 25.6882 24.806C23.5128 23.9052 21.6533 22.3795 20.3451 20.4218C19.0368 18.4642 18.3385 16.1625 18.3385 13.8079C18.3385 11.4534 19.0368 9.15169 20.3451 7.19402C21.6533 5.23635 23.5128 3.71065 25.6882 2.80988C27.8637 1.9091 30.2574 1.67374 32.5667 2.13354C34.8759 2.59334 36.9969 3.72766 38.6614 5.39302C40.8924 7.6252 42.1457 10.652 42.1457 13.8079C42.1457 16.9639 40.8924 19.9907 38.6614 22.2228Z" fill="white"/>
<path d="M34.8247 5.56738C34.1003 5.56738 33.3922 5.78219 32.7899 6.18465C32.1876 6.5871 31.7181 7.15913 31.4409 7.82839C31.1637 8.49765 31.0912 9.23408 31.2325 9.94456C31.3738 10.655 31.7226 11.3077 32.2349 11.8199C32.7471 12.3321 33.3997 12.681 34.1102 12.8223C34.8207 12.9636 35.5571 12.8911 36.2264 12.6139C36.8956 12.3366 37.4677 11.8672 37.8701 11.2649C38.2726 10.6626 38.4874 9.95442 38.4874 9.23002C38.4874 8.25863 38.1015 7.32702 37.4146 6.64014C36.7277 5.95327 35.7961 5.56738 34.8247 5.56738ZM34.8247 11.0613C34.4625 11.0613 34.1085 10.9539 33.8073 10.7527C33.5062 10.5515 33.2714 10.2655 33.1328 9.93083C32.9942 9.5962 32.958 9.22799 33.0286 8.87275C33.0993 8.51751 33.2737 8.1912 33.5298 7.93508C33.7859 7.67897 34.1122 7.50455 34.4675 7.43389C34.8227 7.36323 35.1909 7.39949 35.5256 7.5381C35.8602 7.67671 36.1462 7.91144 36.3474 8.21259C36.5487 8.51375 36.6561 8.86782 36.6561 9.23002C36.6561 9.71572 36.4631 10.1815 36.1197 10.525C35.7762 10.8684 35.3104 11.0613 34.8247 11.0613Z" fill="white"/>
</svg>
