<svg width="24" height="24" viewBox="0 0 24 24" fill="none" xmlns="http://www.w3.org/2000/svg">
<path fill-rule="evenodd" clip-rule="evenodd" d="M17.4147 14.382C17.1169 14.2331 15.6562 13.5148 15.384 13.415C15.1118 13.3162 14.9138 13.2671 14.7147 13.565C14.5167 13.8611 13.9478 14.531 13.7749 14.729C13.6009 14.928 13.428 14.952 13.1313 14.8042C12.834 14.6542 11.8762 14.3406 10.7411 13.3293C9.858 12.5411 9.26127 11.568 9.08836 11.2702C8.91491 10.973 9.06927 10.812 9.21818 10.6642C9.35182 10.5311 9.51491 10.3173 9.66382 10.1439C9.81327 9.96986 9.86182 9.84604 9.96109 9.6475C10.0609 9.44895 10.0107 9.27604 9.936 9.12713C9.86182 8.97822 9.26782 7.51477 9.01964 6.92023C8.77909 6.34095 8.53418 6.42004 8.352 6.41022C8.1621 6.40255 7.97205 6.39909 7.782 6.39986C7.584 6.39986 7.26218 6.47404 6.99 6.77186C6.71727 7.06913 5.94982 7.78804 5.94982 9.25095C5.94982 10.7128 7.014 12.126 7.16291 12.3251C7.31182 12.5231 9.258 15.5248 12.2389 16.812C12.9491 17.118 13.5022 17.3008 13.9331 17.4371C14.6449 17.664 15.2929 17.6319 15.8051 17.555C16.3751 17.4699 17.5631 16.836 17.8113 16.1422C18.0578 15.4479 18.0578 14.8528 17.9842 14.7295C17.91 14.6051 17.712 14.531 17.4142 14.382H17.4153H17.4147ZM11.9929 21.785H11.9891C10.2185 21.785 8.48018 21.3093 6.95673 20.4071L6.59673 20.1933L2.85491 21.1751L3.85418 17.5271L3.61909 17.153C2.62931 15.5773 2.1055 13.7538 2.10818 11.8931C2.10982 6.44295 6.54382 2.0095 11.9973 2.0095C14.6373 2.0095 17.1191 3.03932 18.9845 4.90695C19.905 5.82345 20.6346 6.91336 21.1311 8.11365C21.6276 9.31394 21.8811 10.6008 21.8771 11.8997C21.8749 17.3499 17.4409 21.785 11.9935 21.785H11.9929ZM20.4055 3.48822C19.3036 2.37904 17.9925 1.49958 16.5483 0.900811C15.104 0.302041 13.5553 -0.00413058 11.9918 4.20824e-05C5.43818 4.20824e-05 0.102 5.33459 0.0998182 11.892C0.096767 13.979 0.644277 16.0298 1.68709 17.8375L0 24L6.30382 22.3462C8.04778 23.2962 10.0021 23.794 11.988 23.7939H11.9935C18.5471 23.7939 23.8827 18.4593 23.8849 11.9013C23.8897 10.3386 23.5846 8.7904 22.9873 7.34632C22.39 5.90224 21.5123 4.59093 20.4049 3.48822H20.4055Z" fill="black"/>
</svg>
