<svg width="92" height="73" viewBox="0 0 92 73" fill="none" xmlns="http://www.w3.org/2000/svg">
<path d="M26.1705 2.60449C19.9705 2.60449 14.644 5.45336 10.2465 10.8093C4.69552 17.4613 2 26.0108 2 36.2793C2 46.551 4.69726 55.1027 10.2518 61.7557C14.753 67.1476 20.0715 70.0464 26.1705 70.0464C32.2696 70.0464 37.5881 67.1476 42.0893 61.7557C47.6438 55.1027 50.3411 46.551 50.3411 36.2793C50.3411 26.0109 47.6456 17.4614 42.0947 10.8093C37.6971 5.45337 32.3706 2.60449 26.1705 2.60449Z" fill="white" stroke="black" stroke-width="4"/>
<path d="M63.3048 19.8807C64.6394 18.5577 66.276 17.8962 68.2145 17.8962C70.1529 17.8962 71.7895 18.5577 73.1242 19.8807C74.4589 21.2037 75.1262 22.8259 75.1262 24.7474C75.1262 26.6689 74.4589 28.2912 73.1242 29.6142C71.7895 30.9372 70.1529 31.5987 68.2145 31.5987C66.276 31.5987 64.6394 30.9372 63.3048 29.6142C61.9701 28.2912 61.3027 26.6689 61.3027 24.7474C61.3027 22.8259 61.9701 21.2037 63.3048 19.8807ZM68.2145 28.9999C69.3585 28.9999 70.3118 28.5904 71.0745 27.7714C71.869 26.9209 72.2662 25.9129 72.2662 24.7474C72.2662 23.5819 71.869 22.5897 71.0745 21.7707C70.3118 20.9202 69.3585 20.4949 68.2145 20.4949C67.1022 20.4949 66.1489 20.9202 65.3544 21.7707C64.56 22.5897 64.1628 23.5819 64.1628 24.7474C64.1628 25.9129 64.56 26.9209 65.3544 27.7714C66.1489 28.5904 67.1022 28.9999 68.2145 28.9999ZM67.3808 49.7665C66.8673 49.4664 66.6946 48.8066 66.9952 48.2933L84.4657 18.4663C84.7588 17.9659 85.3984 17.7919 85.9046 18.0749C86.425 18.366 86.6052 19.0276 86.3041 19.5423L68.8531 49.3807C68.553 49.8938 67.8939 50.0665 67.3808 49.7665ZM80.1789 38.3081C81.5136 36.9851 83.1502 36.3236 85.0887 36.3236C87.0271 36.3236 88.6637 36.9851 89.9984 38.3081C91.3331 39.6311 92.0004 41.2534 92.0004 43.1749C92.0004 45.0964 91.3331 46.7186 89.9984 48.0416C88.6637 49.3646 87.0271 50.0261 85.0887 50.0261C83.1502 50.0261 81.5136 49.3646 80.1789 48.0416C78.8443 46.7186 78.1769 45.0964 78.1769 43.1749C78.1769 41.2534 78.8443 39.6311 80.1789 38.3081ZM85.0887 47.4274C86.2327 47.4274 87.186 47.0179 87.9487 46.1989C88.7432 45.3484 89.1404 44.3404 89.1404 43.1749C89.1404 42.0094 88.7432 41.0171 87.9487 40.1981C87.186 39.3476 86.2327 38.9224 85.0887 38.9224C83.9764 38.9224 83.0231 39.3476 82.2286 40.1981C81.4342 41.0171 81.037 42.0094 81.037 43.1749C81.037 44.3404 81.4342 45.3484 82.2286 46.1989C83.0231 47.0179 83.9764 47.4274 85.0887 47.4274Z" fill="black"/>
</svg>
