<svg width="72" height="72" viewBox="0 0 72 72" fill="none" xmlns="http://www.w3.org/2000/svg">
<path fill-rule="evenodd" clip-rule="evenodd" d="M5.14877 0C2.32952 0 0.00637043 2.32317 0.00637043 5.1424L3.78909e-05 51.4324C1.2632 51.4324 2.01674 51.4323 3.43132 51.4323L3.43464 5.1424C3.43464 4.16322 4.1696 3.42827 5.14877 3.42827H53.1445C54.1237 3.42827 54.8587 4.16322 54.8587 5.1424V35.9968C54.8259 38.3148 58.3197 38.3148 58.2869 35.9968V5.1424C58.2869 2.32317 55.9638 0 53.1445 0H5.14877ZM15.4336 13.7131C14.4869 13.7131 13.7194 14.4805 13.7194 15.4272C13.7194 16.3739 14.4869 17.1413 15.4336 17.1413C16.3803 17.1413 17.1477 16.3739 17.1477 15.4272C17.1477 14.4805 16.3803 13.7131 15.4336 13.7131ZM22.1193 13.7165C19.8856 13.8724 20.045 17.2029 22.2834 17.1448H42.8597C45.0964 17.0965 45.0964 13.7648 42.8597 13.7165H22.2834C22.2287 13.7139 22.174 13.7139 22.1193 13.7165ZM15.4336 23.9979C14.4869 23.9979 13.7194 24.7653 13.7194 25.712C13.7194 26.6587 14.4869 27.4261 15.4336 27.4261C16.3803 27.4261 17.1477 26.6587 17.1477 25.712C17.1477 24.7653 16.3803 23.9979 15.4336 23.9979ZM43.0472 23.9979C42.9846 23.9967 42.922 23.9989 42.8597 24.0046H22.2834C22.2287 24.002 22.174 24.002 22.1193 24.0046C20.0164 24.2658 20.1651 27.3609 22.2834 27.4194H42.8597C45.2138 27.6273 45.4099 24.0484 43.0472 23.9979ZM22.2834 34.2793C20.0467 34.3276 20.0467 37.6593 22.2834 37.7076H42.8597C45.1951 37.758 45.1951 34.2289 42.8597 34.2793H22.2834ZM15.4336 34.2827C14.4869 34.2827 13.7194 35.0501 13.7194 35.9968C13.7194 36.9435 14.4869 37.7109 15.4336 37.7109C16.3803 37.7109 17.1477 36.9435 17.1477 35.9968C17.1477 35.0501 16.3803 34.2827 15.4336 34.2827ZM15.4336 44.5675C14.4869 44.5675 13.7194 45.3349 13.7194 46.2816C13.7194 47.2283 14.4869 47.9957 15.4336 47.9957C16.3803 47.9957 17.1477 47.2283 17.1477 46.2816C17.1477 45.3349 16.3803 44.5675 15.4336 44.5675ZM22.2834 44.5675C19.948 44.517 19.948 48.0462 22.2834 47.9957H39.4281C41.7635 48.0462 41.7635 44.517 39.4281 44.5675H22.2834ZM15.4336 54.8523C14.4869 54.8523 13.7194 55.6197 13.7194 56.5664C13.7194 57.5131 14.4869 58.2805 15.4336 58.2805C16.3803 58.2805 17.1477 57.5131 17.1477 56.5664C17.1477 55.6197 16.3803 54.8523 15.4336 54.8523ZM22.1193 54.8523C19.8316 54.9616 19.9957 58.3933 22.2834 58.2839H35.9998C38.2875 58.2839 38.2875 54.8523 35.9998 54.8523H22.2834C22.2287 54.8497 22.174 54.8497 22.1193 54.8523ZM1.69707 51.4323C0.743713 51.4323 0.631288 51.4324 3.78909e-05 51.4324L0.00637043 66.8512C0.00637043 69.6704 2.32953 71.9936 5.14877 71.9936H39.4314C41.7495 72.0264 41.7495 68.5326 39.4314 68.5653H5.14877C4.1696 68.5653 3.43464 67.8304 3.43464 66.8512L3.43132 51.4323C2.64181 51.4323 2.42764 51.4323 1.69707 51.4323ZM56.5761 41.1359C48.0762 41.1359 41.1523 48.0631 41.1523 56.5631C41.1523 65.0629 48.0762 72.0003 56.5761 72.0003C65.076 72.0003 72 65.0629 72 56.5631C72 48.0631 65.076 41.1359 56.5761 41.1359ZM56.5761 44.5675C63.2233 44.5675 68.5717 49.9159 68.5717 56.5631C68.5717 63.2102 63.2233 68.5687 56.5761 68.5687C49.929 68.5687 44.5806 63.2102 44.5806 56.5631C44.5806 49.9159 49.929 44.5675 56.5761 44.5675ZM61.9897 51.2097C61.5456 51.2239 61.1242 51.4099 60.8146 51.7287L54.7549 57.7884L52.3377 55.3612C52.1796 55.1959 51.9901 55.0638 51.7803 54.9727C51.5705 54.8817 51.3446 54.8334 51.1159 54.8308C50.8872 54.8281 50.6603 54.8712 50.4484 54.9574C50.2366 55.0437 50.0441 55.1713 49.8823 55.333C49.7204 55.4946 49.5925 55.6869 49.506 55.8986C49.4194 56.1103 49.3761 56.3372 49.3784 56.5659C49.3807 56.7946 49.4286 57.0205 49.5194 57.2305C49.6102 57.4404 49.742 57.6301 49.9071 57.7884L53.5396 61.4209C53.6988 61.5805 53.888 61.7071 54.0962 61.7935C54.3045 61.8799 54.5277 61.9244 54.7532 61.9244C54.9787 61.9244 55.2019 61.8799 55.4102 61.7935C55.6184 61.7071 55.8076 61.5805 55.9668 61.4209L63.2452 54.1559C63.4949 53.9148 63.6654 53.6035 63.7344 53.2634C63.8033 52.9232 63.7674 52.5701 63.6313 52.2508C63.4953 51.9315 63.2655 51.661 62.9723 51.4751C62.6792 51.2892 62.3366 51.1967 61.9897 51.2097Z" fill="black"/>
</svg>
