<svg width="26" height="27" viewBox="0 0 26 27" fill="none" xmlns="http://www.w3.org/2000/svg">
<g clip-path="url(#clip0)">
<path d="M20.5488 16.7894C20.0165 16.2352 19.3745 15.9389 18.694 15.9389C18.0191 15.9389 17.3716 16.2297 16.8173 16.7839L15.0833 18.5125C14.9406 18.4357 14.7979 18.3643 14.6608 18.293C14.4632 18.1942 14.2766 18.1009 14.1175 18.0021C12.4932 16.9705 11.0171 15.6261 9.6013 13.8865C8.91536 13.0195 8.45441 12.2897 8.11968 11.5489C8.56965 11.1373 8.9867 10.7093 9.39277 10.2977C9.54642 10.1441 9.70007 9.98495 9.85372 9.8313C11.0061 8.67893 11.0061 7.18634 9.85372 6.03397L8.35564 4.53589C8.18553 4.36578 8.00993 4.19018 7.8453 4.01458C7.51606 3.67436 7.17034 3.32316 6.81366 2.99391C6.28137 2.46712 5.64483 2.18726 4.97535 2.18726C4.30588 2.18726 3.65836 2.46712 3.10961 2.99391C3.10412 2.9994 3.10412 2.9994 3.09864 3.00489L1.23289 4.88709C0.530497 5.58949 0.129911 6.44553 0.0421114 7.43877C-0.0895881 9.04111 0.382335 10.5337 0.744509 11.5105C1.63348 13.9085 2.96145 16.1309 4.94243 18.5125C7.34594 21.3824 10.2378 23.6488 13.5413 25.2456C14.8034 25.8437 16.4881 26.5516 18.3703 26.6724C18.4855 26.6778 18.6062 26.6833 18.716 26.6833C19.9836 26.6833 21.0482 26.2279 21.8823 25.3224C21.8878 25.3115 21.8987 25.306 21.9042 25.295C22.1896 24.9493 22.5188 24.6365 22.8645 24.3018C23.1005 24.0768 23.3419 23.8408 23.5779 23.5939C24.1212 23.0287 24.4065 22.3702 24.4065 21.6952C24.4065 21.0148 24.1157 20.3618 23.5614 19.813L20.5488 16.7894ZM22.5133 22.5677C22.5078 22.5677 22.5078 22.5732 22.5133 22.5677C22.2993 22.7982 22.0798 23.0067 21.8439 23.2372C21.4872 23.5774 21.125 23.9341 20.7848 24.3347C20.2305 24.9273 19.5775 25.2072 18.7215 25.2072C18.6392 25.2072 18.5514 25.2072 18.4691 25.2017C16.8393 25.0975 15.3247 24.4609 14.1888 23.9176C11.0829 22.4141 8.35564 20.2794 6.08931 17.5741C4.21808 15.3188 2.96694 13.2335 2.13833 10.9946C1.62799 9.62827 1.44142 8.5637 1.52373 7.55949C1.57861 6.91746 1.82554 6.38517 2.281 5.92971L4.15223 4.05848C4.42112 3.80606 4.70647 3.66887 4.98633 3.66887C5.33204 3.66887 5.6119 3.8774 5.7875 4.053C5.79299 4.05848 5.79848 4.06397 5.80396 4.06946C6.1387 4.38224 6.45697 4.70601 6.79171 5.05172C6.96182 5.22732 7.13742 5.40291 7.31302 5.584L8.8111 7.08208C9.39277 7.66375 9.39277 8.20153 8.8111 8.7832C8.65196 8.94233 8.49831 9.10147 8.33918 9.25512C7.87823 9.72704 7.43923 10.166 6.96182 10.5941C6.95085 10.605 6.93987 10.6105 6.93438 10.6215C6.46246 11.0934 6.55026 11.5544 6.64903 11.8672C6.65452 11.8836 6.66001 11.9001 6.6655 11.9165C7.05511 12.8604 7.60386 13.7494 8.43795 14.8084L8.44344 14.8139C9.95798 16.6797 11.5548 18.1338 13.3163 19.2478C13.5413 19.3905 13.7718 19.5057 13.9913 19.6155C14.1888 19.7142 14.3754 19.8075 14.5345 19.9063C14.5565 19.9173 14.5784 19.9337 14.6004 19.9447C14.787 20.038 14.9626 20.0819 15.1436 20.0819C15.5991 20.0819 15.8845 19.7966 15.9777 19.7033L17.8545 17.8266C18.041 17.64 18.3374 17.415 18.6831 17.415C19.0233 17.415 19.3032 17.629 19.4733 17.8156C19.4788 17.8211 19.4788 17.8211 19.4842 17.8266L22.5078 20.8501C23.0731 21.4099 23.0731 21.9861 22.5133 22.5677Z" fill="#FAFBFC"/>
<path d="M14.0512 6.86802C15.4889 7.10947 16.7949 7.78992 17.8375 8.83254C18.8802 9.87516 19.5551 11.1812 19.8021 12.6189C19.8624 12.9811 20.1752 13.2335 20.5319 13.2335C20.5758 13.2335 20.6142 13.228 20.6581 13.2225C21.0642 13.1567 21.3331 12.7725 21.2672 12.3665C20.9709 10.6269 20.1478 9.04106 18.8911 7.78443C17.6345 6.5278 16.0486 5.70468 14.3091 5.40836C13.903 5.34251 13.5244 5.61139 13.4531 6.01198C13.3817 6.41256 13.6451 6.80217 14.0512 6.86802Z" fill="#FAFBFC"/>
<path d="M25.9707 12.1525C25.4823 9.28803 24.1324 6.68148 22.0581 4.60721C19.9838 2.53295 17.3773 1.18303 14.5128 0.694644C14.1122 0.623306 13.7336 0.89768 13.6623 1.29827C13.5964 1.70434 13.8653 2.08297 14.2714 2.15431C16.8285 2.58782 19.1607 3.80055 21.0155 5.64983C22.8702 7.5046 24.0775 9.83677 24.511 12.3939C24.5714 12.7561 24.8842 13.0085 25.2408 13.0085C25.2847 13.0085 25.3232 13.003 25.3671 12.9976C25.7676 12.9372 26.042 12.5531 25.9707 12.1525Z" fill="#FAFBFC"/>
</g>
<defs>
<clipPath id="clip0">
<rect width="26" height="26" fill="white" transform="translate(0 0.68335)"/>
</clipPath>
</defs>
</svg>
