<svg width="26" height="24" viewBox="0 0 26 24" fill="none" xmlns="http://www.w3.org/2000/svg">
<path d="M25.245 11.6367L1.16686 0.0460779C1.06899 -0.000903553 0.95673 -0.0119579 0.850228 0.0129146C0.605561 0.0709505 0.453004 0.308621 0.513451 0.546292L2.99466 10.2797C3.03208 10.4262 3.14434 10.5451 3.29402 10.592L7.54547 11.9932L3.2969 13.3943C3.14722 13.4441 3.03496 13.5602 3.00042 13.7066L0.513451 23.4539C0.487545 23.5562 0.499059 23.6639 0.547992 23.7551C0.660251 23.9735 0.936581 24.0619 1.16686 23.9541L25.245 12.4298C25.3342 12.3884 25.4062 12.3165 25.4522 12.2336C25.5645 12.0125 25.4724 11.7472 25.245 11.6367ZM3.35159 20.6848L4.79944 15.0028L13.2966 12.2032C13.3628 12.1811 13.4175 12.1314 13.4405 12.065C13.4808 11.949 13.4175 11.8246 13.2966 11.7832L4.79944 8.98637L3.35734 3.32649L21.4339 12.0291L3.35159 20.6848Z" fill="black"/>
</svg>
