<svg width="85" height="85" viewBox="0 0 85 85" fill="none" xmlns="http://www.w3.org/2000/svg">
<path d="M42.5621 1C19.6442 1 1 19.589 1 42.4376C1 65.3551 19.6442 83.9999 42.5621 83.9999C65.479 83.9999 84.1232 65.3551 84.1232 42.4376C84.1232 19.589 65.479 1 42.5621 1ZM42.5621 81.9268C28.3632 81.9268 15.8947 74.391 8.93464 63.1115L13.3359 60.5706C13.832 60.2841 14.002 59.6504 13.7155 59.1546C13.428 58.6582 12.7934 58.4885 12.2995 58.775L7.88974 61.3208C4.98597 56.0103 3.27773 49.9616 3.1008 43.5363H8.21611C8.78912 43.5363 9.25256 43.0723 9.25256 42.4998C9.25256 41.9274 8.78893 41.4634 8.21611 41.4634H3.09785C3.25593 35.0334 4.95613 28.978 7.86166 23.6628L12.2995 26.2247C12.7918 26.509 13.4274 26.3433 13.7155 25.8451C14.002 25.349 13.832 24.7153 13.3359 24.429L8.90675 21.8723C12.1691 16.5865 16.6474 12.1243 21.952 8.87553L24.4907 13.2739C24.779 13.7723 25.4146 13.9378 25.9067 13.6535C26.4028 13.367 26.5728 12.7333 26.2863 12.2374L23.746 7.83632C29.0571 4.95475 35.1046 3.26575 41.5254 3.09942V8.15405C41.5254 8.72648 41.9891 9.19051 42.5619 9.19051C43.1349 9.19051 43.5983 8.72648 43.5983 8.15405V3.09942C50.0191 3.26575 56.0666 4.95475 61.3775 7.83632L58.8365 12.2374C58.55 12.7329 58.72 13.3672 59.2161 13.6535C59.7084 13.9378 60.344 13.7721 60.6321 13.2739L63.1716 8.87553C68.476 12.1245 72.9543 16.5867 76.2164 21.8727L71.7878 24.4292C71.2918 24.7157 71.1217 25.3494 71.4083 25.8453C71.6965 26.3437 72.3322 26.5092 72.8243 26.2249L77.2615 23.6634C80.1669 28.9784 81.8669 35.0338 82.025 41.4636H76.9077C76.3347 41.4636 75.8712 41.9276 75.8712 42.5C75.8712 43.0725 76.3349 43.5365 76.9077 43.5365H82.0218C81.8449 49.9616 80.1368 56.0101 77.2335 61.3204L72.8243 58.775C72.3292 58.4885 71.6946 58.6582 71.4083 59.1546C71.1217 59.6506 71.2918 60.2843 71.7878 60.5706L76.1886 63.1111C69.2293 74.3908 56.7612 81.9268 42.5621 81.9268ZM59.9462 23.6471L45.0273 38.5659C44.3104 38.1133 43.468 37.8411 42.5589 37.8411C39.9949 37.8411 37.9088 39.9268 37.9088 42.4902C37.9088 45.0543 39.9951 47.1399 42.5589 47.1399C45.123 47.1399 47.2081 45.0543 47.2081 42.4902C47.2081 41.5865 46.9381 40.749 46.4901 40.0344L61.4117 25.1128C61.8166 24.7079 61.8166 24.052 61.4117 23.6471C61.0068 23.2422 60.3511 23.2422 59.9462 23.6471ZM42.5591 45.0668C41.138 45.0668 39.9819 43.9108 39.9819 42.4902C39.9819 41.0697 41.138 39.914 42.5591 39.914C43.9793 39.914 45.1354 41.0695 45.1354 42.4902C45.1354 43.911 43.9791 45.0668 42.5591 45.0668ZM58.4571 64.5366C58.4571 65.109 57.9935 65.573 57.4206 65.573H27.7026C27.1296 65.573 26.6661 65.109 26.6661 64.5366C26.6661 63.9642 27.1297 63.5001 27.7026 63.5001H57.4206C57.9935 63.5001 58.4571 63.9642 58.4571 64.5366ZM32.952 58.9885C32.952 58.416 33.4156 57.952 33.9885 57.952L51.1275 57.9514C51.7005 57.9514 52.1639 58.4155 52.1639 58.9879C52.1639 59.5603 51.7003 60.0243 51.1275 60.0243L33.9885 60.0249C33.4156 60.0251 32.952 59.5609 32.952 58.9885ZM52.1641 70.0776C52.1641 70.6501 51.7005 71.1141 51.1277 71.1141L33.9887 71.1151C33.4168 71.1151 32.9522 70.651 32.9522 70.0786C32.9522 69.5062 33.4158 69.0422 33.9887 69.0422L51.1277 69.0412C51.6995 69.041 52.1641 69.5052 52.1641 70.0776Z" fill="black" stroke="black" stroke-width="1.5"/>
</svg>
