<svg width="22" height="23" viewBox="0 0 22 23" fill="none" xmlns="http://www.w3.org/2000/svg">
<g clip-path="url(#clip0)">
<path fill-rule="evenodd" clip-rule="evenodd" d="M15.9635 13.6835C15.6905 13.547 14.3515 12.8885 14.102 12.797C13.8525 12.7065 13.671 12.6615 13.4885 12.9345C13.307 13.206 12.7855 13.82 12.627 14.0015C12.4675 14.184 12.309 14.206 12.037 14.0705C11.7645 13.933 10.8865 13.6455 9.846 12.7185C9.0365 11.996 8.4895 11.104 8.331 10.831C8.172 10.5585 8.3135 10.411 8.45 10.2755C8.5725 10.1535 8.722 9.95754 8.8585 9.79854C8.9955 9.63904 9.04 9.52554 9.131 9.34354C9.2225 9.16154 9.1765 9.00304 9.108 8.86654C9.04 8.73004 8.4955 7.38854 8.268 6.84354C8.0475 6.31254 7.823 6.38504 7.656 6.37604C7.48193 6.369 7.30772 6.36584 7.1335 6.36654C6.952 6.36654 6.657 6.43454 6.4075 6.70754C6.1575 6.98004 5.454 7.63904 5.454 8.98004C5.454 10.32 6.4295 11.6155 6.566 11.798C6.7025 11.9795 8.4865 14.731 11.219 15.911C11.87 16.1915 12.377 16.359 12.772 16.484C13.4245 16.692 14.0185 16.6625 14.488 16.592C15.0105 16.514 16.0995 15.933 16.327 15.297C16.553 14.6605 16.553 14.115 16.4855 14.002C16.4175 13.888 16.236 13.82 15.963 13.6835H15.964H15.9635ZM10.9935 20.4695H10.99C9.367 20.4695 7.7735 20.0335 6.377 19.2065L6.047 19.0105L2.617 19.9105L3.533 16.5665L3.3175 16.2235C2.4102 14.7792 1.93004 13.1077 1.9325 11.402C1.934 6.40604 5.9985 2.34204 10.9975 2.34204C13.4175 2.34204 15.6925 3.28604 17.4025 4.99804C18.2463 5.83816 18.915 6.83725 19.3702 7.93751C19.8253 9.03778 20.0577 10.2174 20.054 11.408C20.052 16.404 15.9875 20.4695 10.994 20.4695H10.9935ZM18.705 3.69754C17.695 2.68079 16.4931 1.87462 15.1692 1.32574C13.8453 0.77687 12.4257 0.496214 10.9925 0.500039C4.985 0.500039 0.0935 5.39004 0.0915 11.401C0.0887031 13.3141 0.590587 15.194 1.5465 16.851L0 22.5L5.7785 20.984C7.37713 21.8549 9.16856 22.3111 10.989 22.311H10.994C17.0015 22.311 21.8925 17.421 21.8945 11.4095C21.8989 9.97703 21.6192 8.55787 21.0717 7.23413C20.5241 5.91039 19.7196 4.70835 18.7045 3.69754H18.705Z" fill="white"/>
</g>
<defs>
<clipPath id="clip0">
<rect width="22" height="22" fill="white" transform="translate(0 0.5)"/>
</clipPath>
</defs>
</svg>
