<svg width="25" height="25" viewBox="0 0 25 25" fill="none" xmlns="http://www.w3.org/2000/svg">
<rect width="25" height="25" rx="4" fill="white"/>
<path fill-rule="evenodd" clip-rule="evenodd" d="M21.5642 7.74486C21.6956 7.31586 21.5642 7 20.9348 7H18.8568C18.3279 7 18.0841 7.27264 17.9519 7.57357C17.9519 7.57357 16.895 10.0847 15.398 11.7159C14.9135 12.1889 14.6935 12.3389 14.4291 12.3389C14.2968 12.3389 14.0981 12.1889 14.0981 11.7591V7.74486C14.0981 7.22943 13.9525 7 13.5123 7H10.2444C9.91427 7 9.71557 7.23886 9.71557 7.46593C9.71557 7.95386 10.4645 8.067 10.5413 9.44043V12.4246C10.5413 13.0791 10.4201 13.1977 10.1557 13.1977C9.45116 13.1977 7.73723 10.6748 6.71996 7.78807C6.52284 7.22629 6.32335 7 5.79215 7H3.71249C3.11875 7 3 7.27264 3 7.57357C3 8.10943 3.70457 10.7714 6.28139 14.2922C7.99927 16.6965 10.4178 18 12.6209 18C13.9422 18 14.1053 17.7109 14.1053 17.2119V15.3946C14.1053 14.8155 14.2303 14.7 14.6491 14.7C14.9579 14.7 15.4859 14.8509 16.7193 16.0098C18.1284 17.384 18.3604 18 19.1536 18H21.2317C21.8254 18 22.1231 17.7109 21.9521 17.1389C21.7637 16.57 21.0908 15.7442 20.1986 14.7644C19.7141 14.2066 18.9874 13.6055 18.7665 13.3046C18.4586 12.9188 18.5464 12.7467 18.7665 12.4034C18.7665 12.4034 21.2998 8.92579 21.5634 7.74486H21.5642Z" fill="black"/>
</svg>
