<svg width="79" height="93" viewBox="0 0 79 93" fill="none" xmlns="http://www.w3.org/2000/svg">
<path d="M38.5077 4.61895L39.025 3.98971L39.564 4.60627L39.5643 4.60664C48.4351 14.7481 61.6933 19.0237 75.4299 22.4476C75.4317 22.448 75.4336 22.4485 75.4354 22.4489L76.0869 22.6154V23.4664C76.0869 55.1403 63.0481 82.4833 39.244 90.8057C39.2326 90.8097 39.2213 90.8138 39.2099 90.8179L39.0358 90.8824L38.8705 90.8282L38.8624 90.8256C26.556 86.8545 17.2504 77.633 11.1292 65.6109C4.99915 53.5709 2 38.7916 2 23.4664V22.5483L2.70859 22.4563L2.71327 22.4557C17.1496 20.5469 29.5438 15.5058 38.5067 4.62008L38.5077 4.61895Z" fill="white" stroke="black" stroke-width="4" stroke-linecap="round" stroke-linejoin="round"/>
</svg>
