<svg width="38" height="47" viewBox="0 0 38 47" fill="none" xmlns="http://www.w3.org/2000/svg">
<path d="M0.904762 0C0.664811 2.39672e-05 0.434696 0.0952585 0.265026 0.264757C0.095355 0.434256 2.39914e-05 0.664139 0 0.903846V46.0962C2.39914e-05 46.3359 0.095355 46.5657 0.265026 46.7352C0.434696 46.9047 0.664811 47 0.904762 47H29.8571C30.0971 47 30.3272 46.9047 30.4968 46.7352L37.7349 39.5044C37.9046 39.3349 38 39.1051 38 38.8654V0.903846C38 0.664139 37.9046 0.434256 37.735 0.264757C37.5653 0.0952585 37.3352 2.39672e-05 37.0952 0H0.904762ZM1.80952 1.80769H36.1905V37.9615C36.1858 37.9615 36.1811 37.9615 36.1763 37.9615H29.8571C29.6172 37.9616 29.3871 38.0568 29.2174 38.2263C29.0477 38.3958 28.9524 38.6257 28.9524 38.8654V45.1817C28.9523 45.1876 28.9523 45.1935 28.9524 45.1994H1.80952V1.81475V1.80769ZM8.14286 5.42308C6.65451 5.42308 5.42858 6.64779 5.42857 8.13461C5.42858 9.62144 6.65451 10.8462 8.14286 10.8462C9.6312 10.8462 10.8571 9.62144 10.8571 8.13461C10.8571 6.64779 9.6312 5.42308 8.14286 5.42308ZM15.38 5.42308C14.8809 5.42308 14.4762 5.82774 14.4762 6.32692C14.4762 6.8261 14.8809 7.23077 15.38 7.23077H31.6676C32.1668 7.23077 32.5714 6.8261 32.5714 6.32692C32.5714 5.82774 32.1668 5.42308 31.6676 5.42308H15.38ZM8.14286 7.23077C8.65327 7.23077 9.04761 7.62485 9.04762 8.13461C9.04761 8.64457 8.65327 9.03846 8.14286 9.03846C7.63245 9.03846 7.2381 8.64457 7.2381 8.13461C7.2381 7.62485 7.63245 7.23077 8.14286 7.23077ZM15.38 9.03846C14.8809 9.03846 14.4762 9.44313 14.4762 9.94231C14.4762 10.4415 14.8809 10.8462 15.38 10.8462H20.8104C21.3096 10.8462 21.7143 10.4415 21.7143 9.94231C21.7143 9.44313 21.3096 9.03846 20.8104 9.03846H15.38ZM8.14286 14.4615C6.65451 14.4615 5.42858 15.6862 5.42857 17.1731C5.42858 18.6599 6.65451 19.8846 8.14286 19.8846C9.6312 19.8846 10.8571 18.6599 10.8571 17.1731C10.8571 15.6862 9.6312 14.4615 8.14286 14.4615ZM15.38 14.4615C14.8809 14.4615 14.4762 14.8662 14.4762 15.3654C14.4762 15.8646 14.8809 16.2692 15.38 16.2692H31.6676C32.1668 16.2692 32.5714 15.8646 32.5714 15.3654C32.5714 14.8662 32.1668 14.4615 31.6676 14.4615H15.38ZM8.14286 16.2692C8.65327 16.2692 9.04761 16.6633 9.04762 17.1731C9.04761 17.683 8.65327 18.0769 8.14286 18.0769C7.63245 18.0769 7.2381 17.683 7.2381 17.1731C7.2381 16.6633 7.63245 16.2692 8.14286 16.2692ZM15.38 18.0769C14.8809 18.0769 14.4762 18.4816 14.4762 18.9808C14.4762 19.4799 14.8809 19.8846 15.38 19.8846H17.1914C17.6906 19.8846 18.0952 19.4799 18.0952 18.9808C18.0952 18.4816 17.6906 18.0769 17.1914 18.0769H15.38ZM8.14286 23.5C6.65451 23.5 5.42858 24.7247 5.42857 26.2115C5.42858 27.6984 6.65451 28.9231 8.14286 28.9231C9.6312 28.9231 10.8571 27.6984 10.8571 26.2115C10.8571 24.7247 9.6312 23.5 8.14286 23.5ZM15.38 23.5C14.8809 23.5 14.4762 23.9047 14.4762 24.4038C14.4762 24.903 14.8809 25.3077 15.38 25.3077H31.6676C32.1668 25.3077 32.5714 24.903 32.5714 24.4038C32.5714 23.9047 32.1668 23.5 31.6676 23.5H15.38ZM8.14286 25.3077C8.65327 25.3077 9.04761 25.7018 9.04762 26.2115C9.04761 26.7215 8.65327 27.1154 8.14286 27.1154C7.63245 27.1154 7.2381 26.7215 7.2381 26.2115C7.2381 25.7018 7.63245 25.3077 8.14286 25.3077ZM15.38 27.1154C14.8809 27.1154 14.4762 27.5201 14.4762 28.0192C14.4762 28.5184 14.8809 28.9231 15.38 28.9231H24.4295C24.9287 28.9231 25.3333 28.5184 25.3333 28.0192C25.3333 27.5201 24.9287 27.1154 24.4295 27.1154H15.38ZM8.14286 32.5385C6.65451 32.5385 5.42858 33.7632 5.42857 35.25C5.42858 36.7368 6.65451 37.9615 8.14286 37.9615C9.6312 37.9615 10.8571 36.7368 10.8571 35.25C10.8571 33.7632 9.6312 32.5385 8.14286 32.5385ZM15.38 32.5385C14.8809 32.5385 14.4762 32.9431 14.4762 33.4423C14.4762 33.9415 14.8809 34.3462 15.38 34.3462H31.6676C32.1668 34.3462 32.5714 33.9415 32.5714 33.4423C32.5714 32.9431 32.1668 32.5385 31.6676 32.5385H15.38ZM8.14286 34.3462C8.65327 34.3462 9.04761 34.7402 9.04762 35.25C9.04761 35.7599 8.65327 36.1538 8.14286 36.1538C7.63245 36.1538 7.2381 35.7599 7.2381 35.25C7.2381 34.7402 7.63245 34.3462 8.14286 34.3462ZM15.38 36.1538C14.8809 36.1538 14.4762 36.5585 14.4762 37.0577C14.4762 37.5569 14.8809 37.9615 15.38 37.9615H20.8104C21.3096 37.9615 21.7143 37.5569 21.7143 37.0577C21.7143 36.5585 21.3096 36.1538 20.8104 36.1538H15.38ZM30.7619 39.7692H34.9111L30.7619 43.9142V39.7692Z" fill="white"/>
</svg>
