<svg width="25" height="25" viewBox="0 0 25 25" fill="none" xmlns="http://www.w3.org/2000/svg">
<rect width="25" height="25" rx="4" fill="white"/>
<path fill-rule="evenodd" clip-rule="evenodd" d="M15.9366 13.9888C15.7496 13.8957 14.8322 13.4467 14.6613 13.3843C14.4904 13.3226 14.366 13.2919 14.241 13.4781C14.1167 13.6632 13.7594 14.0818 13.6508 14.2056C13.5415 14.33 13.4329 14.345 13.2466 14.2526C13.0599 14.1589 12.4584 13.9629 11.7455 13.3308C11.1909 12.8382 10.8162 12.23 10.7076 12.0439C10.5987 11.8581 10.6956 11.7575 10.7891 11.6651C10.873 11.5819 10.9755 11.4483 11.069 11.3399C11.1628 11.2312 11.1933 11.1538 11.2557 11.0297C11.3184 10.9056 11.2868 10.7975 11.2399 10.7044C11.1933 10.6114 10.8203 9.69672 10.6644 9.32513C10.5134 8.96309 10.3596 9.01252 10.2451 9.00638C10.1259 9.00159 10.0065 8.99943 9.88717 8.99991C9.76283 8.99991 9.56072 9.04627 9.38979 9.23241C9.21852 9.4182 8.73655 9.86752 8.73655 10.7818C8.73655 11.6955 9.40486 12.5788 9.49838 12.7032C9.5919 12.8269 10.8141 14.703 12.6862 15.5075C13.1322 15.6988 13.4795 15.813 13.7501 15.8982C14.1972 16.04 14.6041 16.0199 14.9258 15.9718C15.2837 15.9186 16.0298 15.5225 16.1857 15.0889C16.3405 14.6549 16.3405 14.283 16.2942 14.2059C16.2477 14.1282 16.1237 14.0818 15.9366 13.9888ZM17.8148 7.18014C17.1228 6.4869 16.2995 5.93724 15.3925 5.56301C14.4855 5.18877 13.5128 4.99742 12.531 5.00003C8.41523 5.00003 5.06406 8.33411 5.06269 12.4325C5.06077 13.7368 5.40461 15.0186 6.05951 16.1484L5 20L8.95886 18.9664C10.0541 19.5601 11.2814 19.8712 12.5286 19.8711H12.532C16.6478 19.8711 19.9986 16.5371 20 12.4383C20.003 11.4616 19.8114 10.494 19.4363 9.59144C19.0611 8.68889 18.5103 7.86932 17.8148 7.18014Z" fill="black"/>
</svg>
