<?xml version="1.0" encoding="utf-8"?>
<!-- Generator: Adobe Illustrator 24.1.2, SVG Export Plug-In . SVG Version: 6.00 Build 0)  -->
<svg version="1.1" id="Layer_1" xmlns="http://www.w3.org/2000/svg" xmlns:xlink="http://www.w3.org/1999/xlink" x="0px" y="0px"
	 viewBox="0 0 251.1 28.5" style="enable-background:new 0 0 251.1 28.5;" xml:space="preserve">
<style type="text/css">
	.st0{fill-rule:evenodd;clip-rule:evenodd;fill:#FFFFFF;}
</style>
<path class="st0" d="M0,22.6V7.1h19.2c0.5,0,0.9,0.1,1.3,0.3c2.6,0.9,4,3.5,4.2,7.7v1.4l-1.5,0c1,1.8,1.5,3.8,1.5,6H0L0,22.6z
	 M14.8,10.1H5.2V11v2.2h13.1v-0.9c-0.1-0.8-0.4-1.3-0.9-1.7C16.8,10.3,16,10.1,14.8,10.1L14.8,10.1z M14.4,16.5H5.2v3.3h13.1
	c0-1.3-0.3-2.1-0.8-2.6C16.8,16.7,15.8,16.4,14.4,16.5z"/>
<path class="st0" d="M32.8,16.7V7.1H27v10c0,0.3,0.1,0.7,0.2,1.2c0.1,1,0.6,1.9,1.4,2.8c0.8,0.8,1.7,1.3,2.8,1.4h20.5v-3H34.7
	c-0.4-0.1-0.7-0.3-1-0.5c-0.4-0.3-0.6-0.7-0.8-1.3L32.8,16.7z"/>
<path class="st0" d="M53.9,22.5V7.1h18.6c4.1,0.2,6.2,2,6.4,5.4v10.1H73v-5.8v-0.4H59.2l0,6.2H53.9L53.9,22.5z M69.3,10H59v2.6l14,0
	c-0.1-1-0.4-1.7-0.8-2.1C71.7,10.2,70.7,10,69.3,10z"/>
<path class="st0" d="M80.6,14.6c0.1-4.1,2.3-6.6,6.6-7.5h18.4v3h-17c-0.4,0-0.8,0.2-1.2,0.4c-0.2,0.1-0.3,0.3-0.4,0.5
	c-0.1,0.2-0.2,0.4-0.3,0.6c-0.2,0.6-0.2,1.5-0.2,2.5v2.6l0.1,0.7v0.3c0.2,0.7,0.7,1.3,1.3,1.8c0.5,0.1,1.3,0.1,2.5,0.1h15.3v3.1
	l-18,0l-1.3-0.2C82.4,21.4,80.6,18.8,80.6,14.6z"/>
<polygon class="st0" points="117.8,11.1 125,7.1 133.1,7.1 120.7,14.1 120,14.5 132.6,22.7 124.8,22.7 115.8,16.8 112.3,18.8 
	112.3,22.7 107.2,22.7 107.2,7.1 112.3,7.1 112.3,13.8 112.3,14.1 "/>
<path class="st0" d="M170.3,14.6c0.1-4.1,2.3-6.6,6.6-7.5h18.4v3h-17c-0.4,0-0.8,0.2-1.2,0.4c-0.2,0.1-0.3,0.3-0.4,0.5
	c-0.1,0.2-0.2,0.4-0.3,0.6c-0.2,0.6-0.2,1.5-0.2,2.5v2.6l0.1,0.7v0.3c0.2,0.7,0.7,1.3,1.3,1.8c0.5,0.1,1.3,0.1,2.5,0.1h15.3v3.1
	l-18,0l-1.3-0.2C172.2,21.4,170.3,18.8,170.3,14.6z"/>
<path class="st0" d="M196.7,22.5V7.1h18.6c4.1,0.2,6.2,2,6.4,5.4v10.1h-5.8v-5.8v-0.4H202l0,6.2H196.7L196.7,22.5z M212,10h-10.2
	v2.6l14,0c-0.1-1-0.4-1.7-0.8-2.1C214.5,10.2,213.5,10,212,10z"/>
<path class="st0" d="M223.3,22.6V7.1h20.2c0.5,0,1.1,0.1,1.9,0.3l0.7,0.1c0.2,0.1,0.4,0.2,0.6,0.2c4.2,1.9,4.6,4.3,1.1,7.2
	c-0.4,0.2-0.9,0.4-1.6,0.6l-0.3,0.1h-0.2l-0.6,0.2c-0.3,0-0.5,0-0.7,0.1L244,16l-0.2,0.1l6.9,6.2l0.3,0.4h-5.5l-7.3-6.5h-9.6
	l-0.2,0.1v6.4H223.3L223.3,22.6z M228.6,9.9L228.6,9.9l-0.1,3.4l13.6,0.1c0.4,0,0.9-0.2,1.4-0.5c0.8-0.8,0.8-1.6,0.1-2.5
	c-0.3-0.2-0.8-0.4-1.4-0.5H228.6z"/>
<g>
	<path class="st0" d="M162.2,6L161,7.2c1.4,2.1,2.2,4.5,2.2,7.1c0,3.4-1.3,6.5-3.7,8.9s-5.5,3.7-8.9,3.7c-2.6,0-5-0.8-7.1-2.2
		l-1.2,1.2c2.4,1.7,5.3,2.6,8.3,2.6c3.8,0,7.4-1.5,10.1-4.2c2.7-2.7,4.2-6.3,4.2-10.1C164.8,11.3,163.9,8.4,162.2,6L162.2,6z"/>
	<path class="st0" d="M140.1,21.3c-1.4-2.1-2.2-4.5-2.2-7.1c0-3.4,1.3-6.5,3.7-8.9c2.4-2.4,5.5-3.7,8.9-3.7c2.6,0,5,0.8,7.1,2.2
		l1.2-1.2c-2.4-1.7-5.3-2.6-8.3-2.6c-3.8,0-7.4,1.5-10.1,4.2c-2.7,2.7-4.2,6.3-4.2,10.1c0,3,0.9,5.9,2.6,8.3L140.1,21.3z"/>
	<polygon class="st0" points="149.7,22.9 149.7,14.9 141.1,14.9 	"/>
	<polygon class="st0" points="150.5,13 156.1,6.9 144.9,6.9 	"/>
	<polygon class="st0" points="151.4,14.9 151.4,22.9 160,14.9 	"/>
	<polygon class="st0" points="148.4,13.2 143.5,7.9 140.9,13.2 	"/>
	<polygon class="st0" points="152.6,13.2 160.2,13.2 157.6,7.8 	"/>
</g>
</svg>
