<svg width="56" height="75" viewBox="0 0 56 75" fill="none" xmlns="http://www.w3.org/2000/svg">
<path d="M28 0C20.5765 0.00893314 13.4594 3.17259 8.21022 8.79689C2.96101 14.4212 0.00833738 22.0468 0 30.0008C0 42.2074 8.2705 52.3439 17.031 63.0729C19.803 66.4705 22.673 69.9843 25.228 73.5394C25.555 73.9939 25.9749 74.3619 26.4555 74.6151C26.9361 74.8683 27.4645 75 28 75C28.5355 75 29.0639 74.8683 29.5445 74.6151C30.0251 74.3619 30.445 73.9939 30.772 73.5394C33.327 69.9843 36.197 66.4705 38.969 63.0729C47.7295 52.3439 56 42.2074 56 30.0008C55.9917 22.0468 53.039 14.4212 47.7898 8.79689C42.5406 3.17259 35.4235 0.00893314 28 0ZM28 41.2511C25.9233 41.2511 23.8932 40.5913 22.1665 39.3551C20.4398 38.1189 19.094 36.3618 18.2993 34.3061C17.5045 32.2504 17.2966 29.9883 17.7018 27.806C18.1069 25.6236 19.1069 23.619 20.5754 22.0456C22.0438 20.4722 23.9148 19.4008 25.9516 18.9667C27.9884 18.5326 30.0996 18.7554 32.0182 19.6069C33.9368 20.4584 35.5767 21.9004 36.7304 23.7505C37.8842 25.6006 38.5 27.7757 38.5 30.0008C38.5 32.9845 37.3938 35.8461 35.4246 37.9559C33.4555 40.0658 30.7848 41.2511 28 41.2511Z" fill="black"/>
</svg>
