<svg width="52" height="19" viewBox="0 0 52 19" fill="none" xmlns="http://www.w3.org/2000/svg">
<path d="M22.1364 18.1035H18.6484L20.8424 2.84814H24.2742L22.1364 18.1035Z" fill="#747474"/>
<path d="M13.7933 2.84814L10.0373 13.3201L9.58405 11.0576L8.22415 4.20562C8.22415 4.20562 8.09463 2.84814 6.34619 2.84814H0.0647571L0 3.10671C0 3.10671 1.94271 3.49456 4.14445 4.85203L7.57658 18.1035H11.721L18.0025 2.91279H13.7933V2.84814Z" fill="#747474"/>
<path d="M47.3774 18.1035H51.1348L47.8471 2.84814H44.5594C43.0162 2.84814 42.6807 4.01169 42.6807 4.01169L36.5078 18.1035H40.802L41.6742 15.8411H46.9077L47.3774 18.1035ZM42.8149 12.6737L44.962 6.9852L46.1697 12.6737H42.8149Z" fill="#747474"/>
<path d="M35.955 6.67769L36.4469 3.47594C36.4469 3.47594 34.7868 2.84814 33.0653 2.84814C31.2208 2.84814 26.7324 3.66428 26.7324 7.74494C26.7324 11.5745 31.9586 11.6373 31.9586 13.5834C31.9586 15.5924 27.2858 15.2157 25.7487 13.9601L25.1953 17.2874C25.1953 17.2874 26.8554 18.1035 29.4377 18.1035C32.02 18.1035 35.8935 16.7224 35.8935 13.0184C35.8935 9.18888 30.6059 8.81219 30.6059 7.17992C30.6674 5.54767 34.3564 5.736 35.955 6.67769Z" fill="#747474"/>
<path d="M9.06374 9.59042L7.83908 2.3145C7.83908 2.3145 7.71661 0.873047 6.06332 0.873047H0.123733L0.0625 1.14761C0.0625 1.14761 2.87922 1.83402 5.63469 4.30508C8.26771 6.63887 9.06374 9.59042 9.06374 9.59042Z" fill="#747474"/>
</svg>
