<svg xmlns="http://www.w3.org/2000/svg" xmlns:xlink="http://www.w3.org/1999/xlink"><defs>
<clipPath id="clip0">
<rect width="26" height="26" fill="white" transform="translate(0 0.68335)"/>
</clipPath>

<clipPath id="clip0">
<rect width="73" height="36" fill="white"/>
</clipPath>

<clipPath id="clip0">
<rect width="92" height="92" fill="white"/>
</clipPath>

<clipPath id="clip0">
<rect width="22" height="22" fill="white" transform="translate(0 0.5)"/>
</clipPath>
</defs><symbol id="icon-s-arrow" viewBox="0 0 13 10">
<path d="M1 9.04614L6.66667 1.70659L12 9.04614" stroke="white"/>
</symbol><symbol id="icon-s-call" viewBox="0 0 26 27">
<g clip-path="url(#clip0)">
<path d="M20.5488 16.7894C20.0165 16.2352 19.3745 15.9389 18.694 15.9389C18.0191 15.9389 17.3716 16.2297 16.8173 16.7839L15.0833 18.5125C14.9406 18.4357 14.7979 18.3643 14.6608 18.293C14.4632 18.1942 14.2766 18.1009 14.1175 18.0021C12.4932 16.9705 11.0171 15.6261 9.6013 13.8865C8.91536 13.0195 8.45441 12.2897 8.11968 11.5489C8.56965 11.1373 8.9867 10.7093 9.39277 10.2977C9.54642 10.1441 9.70007 9.98495 9.85372 9.8313C11.0061 8.67893 11.0061 7.18634 9.85372 6.03397L8.35564 4.53589C8.18553 4.36578 8.00993 4.19018 7.8453 4.01458C7.51606 3.67436 7.17034 3.32316 6.81366 2.99391C6.28137 2.46712 5.64483 2.18726 4.97535 2.18726C4.30588 2.18726 3.65836 2.46712 3.10961 2.99391C3.10412 2.9994 3.10412 2.9994 3.09864 3.00489L1.23289 4.88709C0.530497 5.58949 0.129911 6.44553 0.0421114 7.43877C-0.0895881 9.04111 0.382335 10.5337 0.744509 11.5105C1.63348 13.9085 2.96145 16.1309 4.94243 18.5125C7.34594 21.3824 10.2378 23.6488 13.5413 25.2456C14.8034 25.8437 16.4881 26.5516 18.3703 26.6724C18.4855 26.6778 18.6062 26.6833 18.716 26.6833C19.9836 26.6833 21.0482 26.2279 21.8823 25.3224C21.8878 25.3115 21.8987 25.306 21.9042 25.295C22.1896 24.9493 22.5188 24.6365 22.8645 24.3018C23.1005 24.0768 23.3419 23.8408 23.5779 23.5939C24.1212 23.0287 24.4065 22.3702 24.4065 21.6952C24.4065 21.0148 24.1157 20.3618 23.5614 19.813L20.5488 16.7894ZM22.5133 22.5677C22.5078 22.5677 22.5078 22.5732 22.5133 22.5677C22.2993 22.7982 22.0798 23.0067 21.8439 23.2372C21.4872 23.5774 21.125 23.9341 20.7848 24.3347C20.2305 24.9273 19.5775 25.2072 18.7215 25.2072C18.6392 25.2072 18.5514 25.2072 18.4691 25.2017C16.8393 25.0975 15.3247 24.4609 14.1888 23.9176C11.0829 22.4141 8.35564 20.2794 6.08931 17.5741C4.21808 15.3188 2.96694 13.2335 2.13833 10.9946C1.62799 9.62827 1.44142 8.5637 1.52373 7.55949C1.57861 6.91746 1.82554 6.38517 2.281 5.92971L4.15223 4.05848C4.42112 3.80606 4.70647 3.66887 4.98633 3.66887C5.33204 3.66887 5.6119 3.8774 5.7875 4.053C5.79299 4.05848 5.79848 4.06397 5.80396 4.06946C6.1387 4.38224 6.45697 4.70601 6.79171 5.05172C6.96182 5.22732 7.13742 5.40291 7.31302 5.584L8.8111 7.08208C9.39277 7.66375 9.39277 8.20153 8.8111 8.7832C8.65196 8.94233 8.49831 9.10147 8.33918 9.25512C7.87823 9.72704 7.43923 10.166 6.96182 10.5941C6.95085 10.605 6.93987 10.6105 6.93438 10.6215C6.46246 11.0934 6.55026 11.5544 6.64903 11.8672C6.65452 11.8836 6.66001 11.9001 6.6655 11.9165C7.05511 12.8604 7.60386 13.7494 8.43795 14.8084L8.44344 14.8139C9.95798 16.6797 11.5548 18.1338 13.3163 19.2478C13.5413 19.3905 13.7718 19.5057 13.9913 19.6155C14.1888 19.7142 14.3754 19.8075 14.5345 19.9063C14.5565 19.9173 14.5784 19.9337 14.6004 19.9447C14.787 20.038 14.9626 20.0819 15.1436 20.0819C15.5991 20.0819 15.8845 19.7966 15.9777 19.7033L17.8545 17.8266C18.041 17.64 18.3374 17.415 18.6831 17.415C19.0233 17.415 19.3032 17.629 19.4733 17.8156C19.4788 17.8211 19.4788 17.8211 19.4842 17.8266L22.5078 20.8501C23.0731 21.4099 23.0731 21.9861 22.5133 22.5677Z" fill="#FAFBFC"/>
<path d="M14.0512 6.86802C15.4889 7.10947 16.7949 7.78992 17.8375 8.83254C18.8802 9.87516 19.5551 11.1812 19.8021 12.6189C19.8624 12.9811 20.1752 13.2335 20.5319 13.2335C20.5758 13.2335 20.6142 13.228 20.6581 13.2225C21.0642 13.1567 21.3331 12.7725 21.2672 12.3665C20.9709 10.6269 20.1478 9.04106 18.8911 7.78443C17.6345 6.5278 16.0486 5.70468 14.3091 5.40836C13.903 5.34251 13.5244 5.61139 13.4531 6.01198C13.3817 6.41256 13.6451 6.80217 14.0512 6.86802Z" fill="#FAFBFC"/>
<path d="M25.9707 12.1525C25.4823 9.28803 24.1324 6.68148 22.0581 4.60721C19.9838 2.53295 17.3773 1.18303 14.5128 0.694644C14.1122 0.623306 13.7336 0.89768 13.6623 1.29827C13.5964 1.70434 13.8653 2.08297 14.2714 2.15431C16.8285 2.58782 19.1607 3.80055 21.0155 5.64983C22.8702 7.5046 24.0775 9.83677 24.511 12.3939C24.5714 12.7561 24.8842 13.0085 25.2408 13.0085C25.2847 13.0085 25.3232 13.003 25.3671 12.9976C25.7676 12.9372 26.042 12.5531 25.9707 12.1525Z" fill="#FAFBFC"/>
</g>

</symbol><symbol id="icon-s-facebook" viewBox="0 0 25 25">
<path d="M21.3379 0H3.66211C1.64299 0 0 1.64299 0 3.66211V21.3379C0 23.357 1.64299 25 3.66211 25H11.0352V16.1621H8.10547V11.7676H11.0352V8.78906C11.0352 6.36578 13.0064 4.39453 15.4297 4.39453H19.873V8.78906H15.4297V11.7676H19.873L19.1406 16.1621H15.4297V25H21.3379C23.357 25 25 23.357 25 21.3379V3.66211C25 1.64299 23.357 0 21.3379 0Z" fill="white"/>
</symbol><symbol id="icon-s-inst" viewBox="0 0 25 25">
<rect width="25" height="25" rx="4" fill="white"/>
<circle cx="12.5" cy="12.5" r="5.1" stroke="black" stroke-width="2.8"/>
<circle cx="20.7324" cy="4.38452" r="1.5" fill="black"/>
</symbol><symbol id="icon-s-list" viewBox="0 0 72 72">
<path fill-rule="evenodd" clip-rule="evenodd" d="M5.14877 0C2.32952 0 0.00637043 2.32317 0.00637043 5.1424L3.78909e-05 51.4324C1.2632 51.4324 2.01674 51.4323 3.43132 51.4323L3.43464 5.1424C3.43464 4.16322 4.1696 3.42827 5.14877 3.42827H53.1445C54.1237 3.42827 54.8587 4.16322 54.8587 5.1424V35.9968C54.8259 38.3148 58.3197 38.3148 58.2869 35.9968V5.1424C58.2869 2.32317 55.9638 0 53.1445 0H5.14877ZM15.4336 13.7131C14.4869 13.7131 13.7194 14.4805 13.7194 15.4272C13.7194 16.3739 14.4869 17.1413 15.4336 17.1413C16.3803 17.1413 17.1477 16.3739 17.1477 15.4272C17.1477 14.4805 16.3803 13.7131 15.4336 13.7131ZM22.1193 13.7165C19.8856 13.8724 20.045 17.2029 22.2834 17.1448H42.8597C45.0964 17.0965 45.0964 13.7648 42.8597 13.7165H22.2834C22.2287 13.7139 22.174 13.7139 22.1193 13.7165ZM15.4336 23.9979C14.4869 23.9979 13.7194 24.7653 13.7194 25.712C13.7194 26.6587 14.4869 27.4261 15.4336 27.4261C16.3803 27.4261 17.1477 26.6587 17.1477 25.712C17.1477 24.7653 16.3803 23.9979 15.4336 23.9979ZM43.0472 23.9979C42.9846 23.9967 42.922 23.9989 42.8597 24.0046H22.2834C22.2287 24.002 22.174 24.002 22.1193 24.0046C20.0164 24.2658 20.1651 27.3609 22.2834 27.4194H42.8597C45.2138 27.6273 45.4099 24.0484 43.0472 23.9979ZM22.2834 34.2793C20.0467 34.3276 20.0467 37.6593 22.2834 37.7076H42.8597C45.1951 37.758 45.1951 34.2289 42.8597 34.2793H22.2834ZM15.4336 34.2827C14.4869 34.2827 13.7194 35.0501 13.7194 35.9968C13.7194 36.9435 14.4869 37.7109 15.4336 37.7109C16.3803 37.7109 17.1477 36.9435 17.1477 35.9968C17.1477 35.0501 16.3803 34.2827 15.4336 34.2827ZM15.4336 44.5675C14.4869 44.5675 13.7194 45.3349 13.7194 46.2816C13.7194 47.2283 14.4869 47.9957 15.4336 47.9957C16.3803 47.9957 17.1477 47.2283 17.1477 46.2816C17.1477 45.3349 16.3803 44.5675 15.4336 44.5675ZM22.2834 44.5675C19.948 44.517 19.948 48.0462 22.2834 47.9957H39.4281C41.7635 48.0462 41.7635 44.517 39.4281 44.5675H22.2834ZM15.4336 54.8523C14.4869 54.8523 13.7194 55.6197 13.7194 56.5664C13.7194 57.5131 14.4869 58.2805 15.4336 58.2805C16.3803 58.2805 17.1477 57.5131 17.1477 56.5664C17.1477 55.6197 16.3803 54.8523 15.4336 54.8523ZM22.1193 54.8523C19.8316 54.9616 19.9957 58.3933 22.2834 58.2839H35.9998C38.2875 58.2839 38.2875 54.8523 35.9998 54.8523H22.2834C22.2287 54.8497 22.174 54.8497 22.1193 54.8523ZM1.69707 51.4323C0.743713 51.4323 0.631288 51.4324 3.78909e-05 51.4324L0.00637043 66.8512C0.00637043 69.6704 2.32953 71.9936 5.14877 71.9936H39.4314C41.7495 72.0264 41.7495 68.5326 39.4314 68.5653H5.14877C4.1696 68.5653 3.43464 67.8304 3.43464 66.8512L3.43132 51.4323C2.64181 51.4323 2.42764 51.4323 1.69707 51.4323ZM56.5761 41.1359C48.0762 41.1359 41.1523 48.0631 41.1523 56.5631C41.1523 65.0629 48.0762 72.0003 56.5761 72.0003C65.076 72.0003 72 65.0629 72 56.5631C72 48.0631 65.076 41.1359 56.5761 41.1359ZM56.5761 44.5675C63.2233 44.5675 68.5717 49.9159 68.5717 56.5631C68.5717 63.2102 63.2233 68.5687 56.5761 68.5687C49.929 68.5687 44.5806 63.2102 44.5806 56.5631C44.5806 49.9159 49.929 44.5675 56.5761 44.5675ZM61.9897 51.2097C61.5456 51.2239 61.1242 51.4099 60.8146 51.7287L54.7549 57.7884L52.3377 55.3612C52.1796 55.1959 51.9901 55.0638 51.7803 54.9727C51.5705 54.8817 51.3446 54.8334 51.1159 54.8308C50.8872 54.8281 50.6603 54.8712 50.4484 54.9574C50.2366 55.0437 50.0441 55.1713 49.8823 55.333C49.7204 55.4946 49.5925 55.6869 49.506 55.8986C49.4194 56.1103 49.3761 56.3372 49.3784 56.5659C49.3807 56.7946 49.4286 57.0205 49.5194 57.2305C49.6102 57.4404 49.742 57.6301 49.9071 57.7884L53.5396 61.4209C53.6988 61.5805 53.888 61.7071 54.0962 61.7935C54.3045 61.8799 54.5277 61.9244 54.7532 61.9244C54.9787 61.9244 55.2019 61.8799 55.4102 61.7935C55.6184 61.7071 55.8076 61.5805 55.9668 61.4209L63.2452 54.1559C63.4949 53.9148 63.6654 53.6035 63.7344 53.2634C63.8033 52.9232 63.7674 52.5701 63.6313 52.2508C63.4953 51.9315 63.2655 51.661 62.9723 51.4751C62.6792 51.2892 62.3366 51.1967 61.9897 51.2097Z" fill="black"/>
</symbol><symbol id="icon-s-logo" viewBox="0 0 73 36">
<g clip-path="url(#clip0)">
<path d="M16.187 15.1578H5.07826C3.96739 15.1578 3.01522 14.6842 2.22174 13.8947C1.26957 12.9473 0.793478 12.1578 0.476087 11.0526C0.158696 9.94732 0 8.99995 0 7.89469C0 6.78943 0.158696 5.68416 0.476087 4.73679C0.793478 3.63153 1.26957 2.84206 2.06304 1.89469C2.85652 1.10522 3.8087 0.631531 4.91957 0.631531H16.0283V3.94732H5.87174C5.23696 3.94732 4.76087 4.26311 4.28478 4.73679C3.8087 5.21048 3.4913 5.68416 3.33261 6.31574C3.17391 6.63153 3.01522 7.26311 3.01522 7.89469C3.01522 8.52627 3.17391 8.99995 3.33261 9.63153C3.4913 10.2631 3.8087 10.7368 4.28478 11.2105C4.76087 11.6842 5.23696 11.8421 5.87174 12H16.187V15.1578ZM5.39565 6.15785H16.0283V9.47364H5.39565V6.15785Z" fill="white"/>
<path d="M73.0009 35.6842H61.8922C60.7813 35.6842 59.8292 35.2105 59.0357 34.4211C58.2422 33.6316 57.7661 32.6842 57.4487 31.579C57.1314 30.4737 56.9727 29.5263 56.9727 28.4211C56.9727 27.3158 57.1314 26.2105 57.4487 25.2632C57.7661 24.1579 58.2422 23.3684 59.0357 22.4211C59.8292 21.6316 60.7813 21.1579 61.8922 21.1579H73.0009V24.4737H62.6857C62.0509 24.4737 61.5748 24.7895 61.0987 25.2632C60.6227 25.7368 60.3053 26.2105 60.1466 26.8421C59.9879 27.4737 59.8292 27.9474 59.8292 28.579C59.8292 29.2105 59.9879 29.6842 60.1466 30.3158C60.3053 30.9474 60.6227 31.4211 61.0987 31.8947C61.5748 32.3684 62.0509 32.5263 62.6857 32.6842H73.0009V35.6842ZM62.2096 26.6842H72.8422V30H62.2096V26.6842Z" fill="white"/>
<path d="M24.2795 9.63158H29.6751L29.0404 7.89474C28.723 7.26316 28.5643 6.63158 28.2469 6C27.9295 5.36842 27.7708 4.89474 27.4534 4.42105C27.136 3.94737 26.8186 3.63158 26.5012 3.63158C26.0251 3.63158 25.7077 3.94737 25.3904 4.42105C25.073 4.89474 24.7556 5.52632 24.5969 6C24.2795 6.63158 24.1208 7.26316 23.8034 7.89474L21.1056 15.4737H17.2969L20.9469 6.1579C21.7404 4.26316 22.5338 2.84211 23.1686 1.73684C23.8034 0.631579 24.9143 0 26.3425 0C27.7708 0 28.8817 0.631579 29.5164 1.73684C30.3099 2.84211 31.1034 4.26316 31.7382 6.1579L35.3882 15.4737H31.7382L30.786 12.9474H24.2795V9.63158Z" fill="white"/>
<path d="M37.294 11.6842H48.8787C49.1961 11.6842 49.5135 11.6842 49.6722 11.5263C49.8309 11.3684 49.9896 11.2105 50.1483 11.0526C50.307 10.8947 50.307 10.7368 50.307 10.421C50.307 10.2631 50.307 10.1052 50.1483 9.94731C49.9896 9.78942 49.8309 9.47363 49.6722 9.47363C49.5135 9.31573 49.1961 9.31573 48.8787 9.31573H41.8961C40.7853 9.31573 39.8331 8.99995 39.0396 8.52626C38.2461 8.05258 37.77 7.421 37.4527 6.78942C37.1353 6.15784 36.9766 5.52626 36.9766 4.73679C36.9766 4.10521 37.1353 3.47363 37.4527 2.84205C37.77 2.21047 38.2461 1.57889 39.0396 1.10521C39.8331 0.631524 40.7853 0.315735 41.8961 0.315735H42.0548C42.2135 0.315735 42.2135 0.315735 42.3722 0.315735H53.3222V3.63152H41.7374C41.42 3.63152 41.1026 3.78942 40.944 3.78942C40.7853 3.94731 40.6266 4.10521 40.4679 4.2631C40.3092 4.421 40.3092 4.57889 40.3092 4.73679C40.3092 4.89468 40.3092 5.05258 40.4679 5.21047C40.6266 5.36837 40.7853 5.52626 40.944 5.68416C41.1026 5.84205 41.42 5.84205 41.7374 5.84205H48.72C49.8309 5.84205 50.7831 6.15784 51.5766 6.63152C52.37 7.10521 52.8461 7.73679 53.1635 8.36837C53.4809 8.99995 53.6396 9.63152 53.6396 10.421C53.6396 11.0526 53.4809 11.8421 53.1635 12.4736C52.8461 13.1052 52.37 13.7368 51.5766 14.2105C50.7831 14.6842 49.8309 14.9999 48.72 14.9999H48.5613C48.4027 14.9999 48.4027 14.9999 48.244 14.9999H37.294V11.6842Z" fill="white"/>
<path d="M57.1323 11.8422H66.8128C67.4476 11.8422 67.9236 11.5264 68.3997 11.0527C68.7171 10.579 69.0345 10.1053 69.1932 9.63164H61.5758C60.4649 9.63164 59.5128 9.15796 58.7193 8.52638C57.9258 7.73691 57.4497 6.94743 57.1323 5.84217C56.8149 4.73691 56.6562 3.63164 56.6562 2.52638V0.157959H59.9889V0.631643C59.9889 1.26322 59.9889 3.47375 60.1476 4.10533C60.3063 4.73691 60.4649 5.21059 60.941 5.68428C61.4171 6.15796 61.8932 6.31585 62.528 6.47375H69.5106V0.315854H72.8432V7.57901C72.8432 8.84217 72.6845 10.1053 72.3671 11.3685C72.0497 12.4737 71.4149 13.2632 70.7802 14.0527C69.9867 14.6843 69.0345 15.158 67.9236 15.158H57.1323V11.8422Z" fill="white"/>
<path d="M20.1562 32.3685H26.5041V24.4737H20.1562V21.158H36.1845V24.4737H29.8367V32.3685H36.1845V35.6843H20.1562V32.3685Z" fill="white"/>
<path d="M38.7227 21.1579H49.514C50.6248 21.1579 51.577 21.6316 52.3705 22.4211C53.164 23.2105 53.6401 24.1579 53.9574 25.2632C54.2748 26.3684 54.4335 27.3158 54.4335 28.4211C54.4335 29.5263 54.2748 30.6316 53.9574 31.579C53.6401 32.6842 53.164 33.4737 52.3705 34.4211C51.577 35.2105 50.6248 35.6842 49.514 35.6842H40.3096C39.8335 35.6842 39.5161 35.5263 39.1987 35.2105C38.8814 34.8947 38.7227 34.579 38.7227 34.1053V26.3684H42.0553V31.7368C42.0553 32.2105 42.214 32.3684 42.69 32.3684H48.5618C49.1966 32.3684 49.6727 32.0526 50.1487 31.579C50.6248 31.1053 50.7835 30.6316 51.1009 30C51.2596 29.3684 51.4183 28.8947 51.4183 28.2632C51.4183 27.6316 51.2596 27.1579 51.1009 26.5263C50.9422 25.8947 50.6248 25.4211 50.1487 24.9474C49.6727 24.4737 49.1966 24.3158 48.5618 24.1579H38.7227V21.1579Z" fill="white"/>
<path d="M6.50749 26.6842H13.014C13.3314 26.6842 13.6488 26.5263 13.8075 26.5263C13.9662 26.3684 14.1249 26.2105 14.2836 26.0526C14.4423 25.8947 14.4423 25.7368 14.4423 25.579C14.4423 25.4211 14.4423 25.2632 14.2836 25.1053C14.1249 24.9474 13.9662 24.7895 13.8075 24.6316C13.6488 24.4737 13.3314 24.4737 13.014 24.4737H4.28575C3.80966 24.4737 3.65097 24.6316 3.65097 25.1053V36H0.318359V22.7368C0.318359 22.2632 0.477055 21.9474 0.794446 21.6316C1.11184 21.3158 1.58792 21.1579 2.06401 21.1579H12.3792C12.5379 21.1579 12.5379 21.1579 12.6966 21.1579H12.8553C13.9662 21.1579 14.9184 21.4737 15.7118 21.9474C16.5053 22.4211 16.9814 23.0526 17.2988 23.6842C17.6162 24.3158 17.7749 24.9474 17.7749 25.579C17.7749 26.2105 17.6162 26.8421 17.2988 27.4737C16.9814 28.1053 16.5053 28.7368 15.7118 29.2105C14.9184 29.6842 13.9662 30 12.8553 30H8.57053C8.72923 30.7895 9.04662 31.4211 9.36401 31.8947C9.8401 32.3684 10.3162 32.5263 10.951 32.5263H17.9336V35.8421H10.4749C9.20532 35.8421 8.09445 35.3684 7.14227 34.4211C6.1901 33.4737 5.55532 32.3684 5.39662 30.9474C5.07923 29.6842 5.07923 29.3684 5.07923 28.7368C5.07923 28.579 5.07923 28.2632 4.92053 28.1053L4.76184 26.6842H6.50749Z" fill="white"/>
</g>

</symbol><symbol id="icon-s-number" viewBox="0 0 119 57">
<path d="M89.1463 14.6291C90.49 13.2819 92.1375 12.6083 94.089 12.6083C96.0405 12.6083 97.6881 13.2819 99.0317 14.6291C100.375 15.9763 101.047 17.6283 101.047 19.585C101.047 21.5416 100.375 23.1936 99.0317 24.5408C97.6881 25.888 96.0405 26.5616 94.089 26.5616C92.1375 26.5616 90.49 25.888 89.1463 24.5408C87.8027 23.1936 87.1309 21.5416 87.1309 19.585C87.1309 17.6283 87.8027 15.9763 89.1463 14.6291ZM94.089 23.9153C95.2407 23.9153 96.2005 23.4983 96.9683 22.6643C97.7681 21.7982 98.168 20.7718 98.168 19.585C98.168 18.3981 97.7681 17.3877 96.9683 16.5537C96.2005 15.6876 95.2407 15.2546 94.089 15.2546C92.9693 15.2546 92.0096 15.6876 91.2098 16.5537C90.41 17.3877 90.0101 18.3981 90.0101 19.585C90.0101 20.7718 90.41 21.7982 91.2098 22.6643C92.0096 23.4983 92.9693 23.9153 94.089 23.9153ZM93.2404 45.0566C92.7271 44.7531 92.5543 44.0927 92.8531 43.5766L110.447 13.1927C110.743 12.6824 111.394 12.5053 111.907 12.7956C112.428 13.0899 112.608 13.7522 112.309 14.2698L94.7343 44.6651C94.4318 45.1883 93.7606 45.3642 93.2404 45.0566ZM106.134 33.394C107.478 32.0467 109.125 31.3731 111.077 31.3731C113.028 31.3731 114.676 32.0467 116.019 33.394C117.363 34.7412 118.035 36.3931 118.035 38.3498C118.035 40.3065 117.363 41.9584 116.019 43.3056C114.676 44.6529 113.028 45.3265 111.077 45.3265C109.125 45.3265 107.478 44.6529 106.134 43.3056C104.79 41.9584 104.118 40.3065 104.118 38.3498C104.118 36.3931 104.79 34.7412 106.134 33.394ZM111.077 42.6801C112.228 42.6801 113.188 42.2631 113.956 41.4292C114.756 40.5631 115.156 39.5366 115.156 38.3498C115.156 37.163 114.756 36.1525 113.956 35.3186C113.188 34.4525 112.228 34.0194 111.077 34.0194C109.957 34.0194 108.997 34.4525 108.197 35.3186C107.398 36.1525 106.998 37.163 106.998 38.3498C106.998 39.5366 107.398 40.5631 108.197 41.4292C108.997 42.2631 109.957 42.6801 111.077 42.6801Z" fill="black"/>
<path d="M16.9997 57.0007L14.2342 54.877L26.2723 37.6423C23.9406 38.6224 21.4733 39.1125 18.8705 39.1125C13.4479 39.1125 8.94722 37.3155 5.36833 33.7216C1.78944 30.1276 0 25.5807 0 20.0808C0 14.5809 1.81656 10.0068 5.44967 6.35838C9.08278 2.70996 13.7191 0.885742 19.3585 0.885742C24.8895 0.885742 29.4716 2.70996 33.1047 6.35838C36.7378 10.0068 38.5544 14.6082 38.5544 20.1625C38.5544 24.1376 37.3885 27.8405 35.0568 31.2711L16.9997 57.0007ZM30.3392 8.72713C27.411 5.67771 23.7237 4.15299 19.2772 4.15299C14.8307 4.15299 11.1162 5.67771 8.13384 8.72713C5.20566 11.7766 3.74156 15.5339 3.74156 19.9991C3.74156 24.6277 5.20566 28.4395 8.13384 31.4345C11.1162 34.375 14.8307 35.8453 19.2772 35.8453C23.7779 35.8453 27.4924 34.3478 30.4205 31.3528C33.3487 28.3578 34.8128 24.5733 34.8128 19.9991C34.8128 15.4794 33.3216 11.7221 30.3392 8.72713Z" fill="black"/>
<path d="M76.1479 1.62087V4.88812H57.9281L53.3732 19.5907C54.6746 19.264 55.8947 19.1006 57.0334 19.1006C62.7271 19.1006 67.2821 20.8704 70.6983 24.4099C74.1687 27.9494 75.9039 32.4691 75.9039 37.969C75.9039 43.6867 74.0331 48.288 70.2916 51.7731C66.6042 55.2582 62.0493 57.0007 56.6267 57.0007C49.252 57.0007 43.8295 54.0057 40.3591 48.0158L43.5312 46.7089C46.6763 51.3919 51.0686 53.7335 56.7081 53.7335C61.2088 53.7335 64.8961 52.2632 67.7701 49.3227C70.6983 46.3821 72.1624 42.6248 72.1624 38.0507C72.1624 33.4221 70.7254 29.6647 67.8514 26.7787C65.0317 23.8381 61.3715 22.3679 56.8707 22.3679C53.7799 22.3679 50.9602 23.1575 48.4115 24.7366L55.4067 1.62087H76.1479Z" fill="black"/>
</symbol><symbol id="icon-s-passport" viewBox="0 0 92 92">
<g clip-path="url(#clip0)">
<rect fill="white" x="14.9121" y="4.4209" width="58.9474" height="76.7018" stroke="black" stroke-width="4"/>
<path fill="white" d="M57.7175 33.8538C57.7175 41.2176 51.7479 47.1872 44.3841 47.1872C37.0203 47.1872 31.0508 41.2176 31.0508 33.8538C31.0508 26.49 37.0203 20.5205 44.3841 20.5205C51.7479 20.5205 57.7175 26.49 57.7175 33.8538Z" stroke="black" stroke-width="4"/>
<path fill="white" d="M31.4746 56.8545L57.5413 56.8545" stroke="black" stroke-width="4" stroke-linecap="round"/>
<path fill="white" d="M27.4395 65.2871H61.1728" stroke="black" stroke-width="4" stroke-linecap="round"/>
<path fill="none" d="M83.0816 16.6855V91.0522H30.1816" stroke="black" stroke-width="4" stroke-linecap="round"/>
</g>

</symbol><symbol id="icon-s-shied" viewBox="0 0 79 93">
<path d="M38.5077 4.61895L39.025 3.98971L39.564 4.60627L39.5643 4.60664C48.4351 14.7481 61.6933 19.0237 75.4299 22.4476C75.4317 22.448 75.4336 22.4485 75.4354 22.4489L76.0869 22.6154V23.4664C76.0869 55.1403 63.0481 82.4833 39.244 90.8057C39.2326 90.8097 39.2213 90.8138 39.2099 90.8179L39.0358 90.8824L38.8705 90.8282L38.8624 90.8256C26.556 86.8545 17.2504 77.633 11.1292 65.6109C4.99915 53.5709 2 38.7916 2 23.4664V22.5483L2.70859 22.4563L2.71327 22.4557C17.1496 20.5469 29.5438 15.5058 38.5067 4.62008L38.5077 4.61895Z" fill="white" stroke="black" stroke-width="4" stroke-linecap="round" stroke-linejoin="round"/>
</symbol><symbol id="icon-s-speed" viewBox="0 0 85 85">
<path d="M42.5621 1C19.6442 1 1 19.589 1 42.4376C1 65.3551 19.6442 83.9999 42.5621 83.9999C65.479 83.9999 84.1232 65.3551 84.1232 42.4376C84.1232 19.589 65.479 1 42.5621 1ZM42.5621 81.9268C28.3632 81.9268 15.8947 74.391 8.93464 63.1115L13.3359 60.5706C13.832 60.2841 14.002 59.6504 13.7155 59.1546C13.428 58.6582 12.7934 58.4885 12.2995 58.775L7.88974 61.3208C4.98597 56.0103 3.27773 49.9616 3.1008 43.5363H8.21611C8.78912 43.5363 9.25256 43.0723 9.25256 42.4998C9.25256 41.9274 8.78893 41.4634 8.21611 41.4634H3.09785C3.25593 35.0334 4.95613 28.978 7.86166 23.6628L12.2995 26.2247C12.7918 26.509 13.4274 26.3433 13.7155 25.8451C14.002 25.349 13.832 24.7153 13.3359 24.429L8.90675 21.8723C12.1691 16.5865 16.6474 12.1243 21.952 8.87553L24.4907 13.2739C24.779 13.7723 25.4146 13.9378 25.9067 13.6535C26.4028 13.367 26.5728 12.7333 26.2863 12.2374L23.746 7.83632C29.0571 4.95475 35.1046 3.26575 41.5254 3.09942V8.15405C41.5254 8.72648 41.9891 9.19051 42.5619 9.19051C43.1349 9.19051 43.5983 8.72648 43.5983 8.15405V3.09942C50.0191 3.26575 56.0666 4.95475 61.3775 7.83632L58.8365 12.2374C58.55 12.7329 58.72 13.3672 59.2161 13.6535C59.7084 13.9378 60.344 13.7721 60.6321 13.2739L63.1716 8.87553C68.476 12.1245 72.9543 16.5867 76.2164 21.8727L71.7878 24.4292C71.2918 24.7157 71.1217 25.3494 71.4083 25.8453C71.6965 26.3437 72.3322 26.5092 72.8243 26.2249L77.2615 23.6634C80.1669 28.9784 81.8669 35.0338 82.025 41.4636H76.9077C76.3347 41.4636 75.8712 41.9276 75.8712 42.5C75.8712 43.0725 76.3349 43.5365 76.9077 43.5365H82.0218C81.8449 49.9616 80.1368 56.0101 77.2335 61.3204L72.8243 58.775C72.3292 58.4885 71.6946 58.6582 71.4083 59.1546C71.1217 59.6506 71.2918 60.2843 71.7878 60.5706L76.1886 63.1111C69.2293 74.3908 56.7612 81.9268 42.5621 81.9268ZM59.9462 23.6471L45.0273 38.5659C44.3104 38.1133 43.468 37.8411 42.5589 37.8411C39.9949 37.8411 37.9088 39.9268 37.9088 42.4902C37.9088 45.0543 39.9951 47.1399 42.5589 47.1399C45.123 47.1399 47.2081 45.0543 47.2081 42.4902C47.2081 41.5865 46.9381 40.749 46.4901 40.0344L61.4117 25.1128C61.8166 24.7079 61.8166 24.052 61.4117 23.6471C61.0068 23.2422 60.3511 23.2422 59.9462 23.6471ZM42.5591 45.0668C41.138 45.0668 39.9819 43.9108 39.9819 42.4902C39.9819 41.0697 41.138 39.914 42.5591 39.914C43.9793 39.914 45.1354 41.0695 45.1354 42.4902C45.1354 43.911 43.9791 45.0668 42.5591 45.0668ZM58.4571 64.5366C58.4571 65.109 57.9935 65.573 57.4206 65.573H27.7026C27.1296 65.573 26.6661 65.109 26.6661 64.5366C26.6661 63.9642 27.1297 63.5001 27.7026 63.5001H57.4206C57.9935 63.5001 58.4571 63.9642 58.4571 64.5366ZM32.952 58.9885C32.952 58.416 33.4156 57.952 33.9885 57.952L51.1275 57.9514C51.7005 57.9514 52.1639 58.4155 52.1639 58.9879C52.1639 59.5603 51.7003 60.0243 51.1275 60.0243L33.9885 60.0249C33.4156 60.0251 32.952 59.5609 32.952 58.9885ZM52.1641 70.0776C52.1641 70.6501 51.7005 71.1141 51.1277 71.1141L33.9887 71.1151C33.4168 71.1151 32.9522 70.651 32.9522 70.0786C32.9522 69.5062 33.4158 69.0422 33.9887 69.0422L51.1277 69.0412C51.6995 69.041 52.1641 69.5052 52.1641 70.0776Z" fill="black" stroke="black" stroke-width="1.5"/>
</symbol><symbol id="icon-s-TG-Black" viewBox="0 0 26 24">
<path d="M25.245 11.6367L1.16686 0.0460779C1.06899 -0.000903553 0.95673 -0.0119579 0.850228 0.0129146C0.605561 0.0709505 0.453004 0.308621 0.513451 0.546292L2.99466 10.2797C3.03208 10.4262 3.14434 10.5451 3.29402 10.592L7.54547 11.9932L3.2969 13.3943C3.14722 13.4441 3.03496 13.5602 3.00042 13.7066L0.513451 23.4539C0.487545 23.5562 0.499059 23.6639 0.547992 23.7551C0.660251 23.9735 0.936581 24.0619 1.16686 23.9541L25.245 12.4298C25.3342 12.3884 25.4062 12.3165 25.4522 12.2336C25.5645 12.0125 25.4724 11.7472 25.245 11.6367ZM3.35159 20.6848L4.79944 15.0028L13.2966 12.2032C13.3628 12.1811 13.4175 12.1314 13.4405 12.065C13.4808 11.949 13.4175 11.8246 13.2966 11.7832L4.79944 8.98637L3.35734 3.32649L21.4339 12.0291L3.35159 20.6848Z" fill="black"/>
</symbol><symbol id="icon-s-TG-v2" viewBox="0 0 21 21">
<path d="M20.7858 10.1821L0.560159 0.0403182C0.477951 -0.000790608 0.383653 -0.0104632 0.294192 0.0113003C0.0886714 0.0620817 -0.0394767 0.270044 0.0112989 0.478006L2.09552 8.99478C2.12695 9.12294 2.22125 9.22692 2.34698 9.26803L5.91819 10.494L2.34939 11.72C2.22366 11.7636 2.12937 11.8651 2.10035 11.9933L0.0112989 20.5222C-0.010462 20.6116 -0.000790385 20.7059 0.0403137 20.7857C0.134611 20.9768 0.366728 21.0542 0.560159 20.9599L20.7858 10.8761C20.8607 10.8398 20.9212 10.777 20.9599 10.7044C21.0542 10.511 20.9768 10.2788 20.7858 10.1821ZM2.39533 18.0992L3.61153 13.1274L10.7491 10.6778C10.8047 10.6585 10.8507 10.6149 10.87 10.5569C10.9039 10.4553 10.8507 10.3465 10.7491 10.3103L3.61153 7.86308L2.40017 2.91068L17.5845 10.5255L2.39533 18.0992Z" fill="#FAFBFC"/>
</symbol><symbol id="icon-s-TG" viewBox="0 0 26 25">
<rect x="0.738281" width="25" height="25" rx="4" fill="white"/>
<path d="M20.847 12.2729L6.40011 5.0288C6.34139 4.99944 6.27404 4.99253 6.21014 5.00807C6.06334 5.04434 5.9718 5.19289 6.00807 5.34143L7.42753 11.2334C7.44998 11.3249 7.51734 11.3992 7.60714 11.4286L14.125 12.5L7.60714 13.5714C7.51734 13.6025 7.44998 13.6751 7.42926 13.7666L6.00807 19.6587C5.99253 19.7226 5.99944 19.79 6.0288 19.847C6.09615 19.9834 6.26195 20.0387 6.40011 19.9713L20.847 12.7686C20.9005 12.7427 20.9437 12.6978 20.9713 12.646C21.0387 12.5078 20.9834 12.342 20.847 12.2729Z" fill="black"/>
</symbol><symbol id="icon-s-vk" viewBox="0 0 25 25">
<rect width="25" height="25" rx="4" fill="white"/>
<path fill-rule="evenodd" clip-rule="evenodd" d="M21.5642 7.74486C21.6956 7.31586 21.5642 7 20.9348 7H18.8568C18.3279 7 18.0841 7.27264 17.9519 7.57357C17.9519 7.57357 16.895 10.0847 15.398 11.7159C14.9135 12.1889 14.6935 12.3389 14.4291 12.3389C14.2968 12.3389 14.0981 12.1889 14.0981 11.7591V7.74486C14.0981 7.22943 13.9525 7 13.5123 7H10.2444C9.91427 7 9.71557 7.23886 9.71557 7.46593C9.71557 7.95386 10.4645 8.067 10.5413 9.44043V12.4246C10.5413 13.0791 10.4201 13.1977 10.1557 13.1977C9.45116 13.1977 7.73723 10.6748 6.71996 7.78807C6.52284 7.22629 6.32335 7 5.79215 7H3.71249C3.11875 7 3 7.27264 3 7.57357C3 8.10943 3.70457 10.7714 6.28139 14.2922C7.99927 16.6965 10.4178 18 12.6209 18C13.9422 18 14.1053 17.7109 14.1053 17.2119V15.3946C14.1053 14.8155 14.2303 14.7 14.6491 14.7C14.9579 14.7 15.4859 14.8509 16.7193 16.0098C18.1284 17.384 18.3604 18 19.1536 18H21.2317C21.8254 18 22.1231 17.7109 21.9521 17.1389C21.7637 16.57 21.0908 15.7442 20.1986 14.7644C19.7141 14.2066 18.9874 13.6055 18.7665 13.3046C18.4586 12.9188 18.5464 12.7467 18.7665 12.4034C18.7665 12.4034 21.2998 8.92579 21.5634 7.74486H21.5642Z" fill="black"/>
</symbol><symbol id="icon-s-WatApp-Black" viewBox="0 0 24 24">
<path fill-rule="evenodd" clip-rule="evenodd" d="M17.4147 14.382C17.1169 14.2331 15.6562 13.5148 15.384 13.415C15.1118 13.3162 14.9138 13.2671 14.7147 13.565C14.5167 13.8611 13.9478 14.531 13.7749 14.729C13.6009 14.928 13.428 14.952 13.1313 14.8042C12.834 14.6542 11.8762 14.3406 10.7411 13.3293C9.858 12.5411 9.26127 11.568 9.08836 11.2702C8.91491 10.973 9.06927 10.812 9.21818 10.6642C9.35182 10.5311 9.51491 10.3173 9.66382 10.1439C9.81327 9.96986 9.86182 9.84604 9.96109 9.6475C10.0609 9.44895 10.0107 9.27604 9.936 9.12713C9.86182 8.97822 9.26782 7.51477 9.01964 6.92023C8.77909 6.34095 8.53418 6.42004 8.352 6.41022C8.1621 6.40255 7.97205 6.39909 7.782 6.39986C7.584 6.39986 7.26218 6.47404 6.99 6.77186C6.71727 7.06913 5.94982 7.78804 5.94982 9.25095C5.94982 10.7128 7.014 12.126 7.16291 12.3251C7.31182 12.5231 9.258 15.5248 12.2389 16.812C12.9491 17.118 13.5022 17.3008 13.9331 17.4371C14.6449 17.664 15.2929 17.6319 15.8051 17.555C16.3751 17.4699 17.5631 16.836 17.8113 16.1422C18.0578 15.4479 18.0578 14.8528 17.9842 14.7295C17.91 14.6051 17.712 14.531 17.4142 14.382H17.4153H17.4147ZM11.9929 21.785H11.9891C10.2185 21.785 8.48018 21.3093 6.95673 20.4071L6.59673 20.1933L2.85491 21.1751L3.85418 17.5271L3.61909 17.153C2.62931 15.5773 2.1055 13.7538 2.10818 11.8931C2.10982 6.44295 6.54382 2.0095 11.9973 2.0095C14.6373 2.0095 17.1191 3.03932 18.9845 4.90695C19.905 5.82345 20.6346 6.91336 21.1311 8.11365C21.6276 9.31394 21.8811 10.6008 21.8771 11.8997C21.8749 17.3499 17.4409 21.785 11.9935 21.785H11.9929ZM20.4055 3.48822C19.3036 2.37904 17.9925 1.49958 16.5483 0.900811C15.104 0.302041 13.5553 -0.00413058 11.9918 4.20824e-05C5.43818 4.20824e-05 0.102 5.33459 0.0998182 11.892C0.096767 13.979 0.644277 16.0298 1.68709 17.8375L0 24L6.30382 22.3462C8.04778 23.2962 10.0021 23.794 11.988 23.7939H11.9935C18.5471 23.7939 23.8827 18.4593 23.8849 11.9013C23.8897 10.3386 23.5846 8.7904 22.9873 7.34632C22.39 5.90224 21.5123 4.59093 20.4049 3.48822H20.4055Z" fill="black"/>
</symbol><symbol id="icon-s-whatsApp-v2" viewBox="0 0 22 23">
<g clip-path="url(#clip0)">
<path fill-rule="evenodd" clip-rule="evenodd" d="M15.9635 13.6835C15.6905 13.547 14.3515 12.8885 14.102 12.797C13.8525 12.7065 13.671 12.6615 13.4885 12.9345C13.307 13.206 12.7855 13.82 12.627 14.0015C12.4675 14.184 12.309 14.206 12.037 14.0705C11.7645 13.933 10.8865 13.6455 9.846 12.7185C9.0365 11.996 8.4895 11.104 8.331 10.831C8.172 10.5585 8.3135 10.411 8.45 10.2755C8.5725 10.1535 8.722 9.95754 8.8585 9.79854C8.9955 9.63904 9.04 9.52554 9.131 9.34354C9.2225 9.16154 9.1765 9.00304 9.108 8.86654C9.04 8.73004 8.4955 7.38854 8.268 6.84354C8.0475 6.31254 7.823 6.38504 7.656 6.37604C7.48193 6.369 7.30772 6.36584 7.1335 6.36654C6.952 6.36654 6.657 6.43454 6.4075 6.70754C6.1575 6.98004 5.454 7.63904 5.454 8.98004C5.454 10.32 6.4295 11.6155 6.566 11.798C6.7025 11.9795 8.4865 14.731 11.219 15.911C11.87 16.1915 12.377 16.359 12.772 16.484C13.4245 16.692 14.0185 16.6625 14.488 16.592C15.0105 16.514 16.0995 15.933 16.327 15.297C16.553 14.6605 16.553 14.115 16.4855 14.002C16.4175 13.888 16.236 13.82 15.963 13.6835H15.964H15.9635ZM10.9935 20.4695H10.99C9.367 20.4695 7.7735 20.0335 6.377 19.2065L6.047 19.0105L2.617 19.9105L3.533 16.5665L3.3175 16.2235C2.4102 14.7792 1.93004 13.1077 1.9325 11.402C1.934 6.40604 5.9985 2.34204 10.9975 2.34204C13.4175 2.34204 15.6925 3.28604 17.4025 4.99804C18.2463 5.83816 18.915 6.83725 19.3702 7.93751C19.8253 9.03778 20.0577 10.2174 20.054 11.408C20.052 16.404 15.9875 20.4695 10.994 20.4695H10.9935ZM18.705 3.69754C17.695 2.68079 16.4931 1.87462 15.1692 1.32574C13.8453 0.77687 12.4257 0.496214 10.9925 0.500039C4.985 0.500039 0.0935 5.39004 0.0915 11.401C0.0887031 13.3141 0.590587 15.194 1.5465 16.851L0 22.5L5.7785 20.984C7.37713 21.8549 9.16856 22.3111 10.989 22.311H10.994C17.0015 22.311 21.8925 17.421 21.8945 11.4095C21.8989 9.97703 21.6192 8.55787 21.0717 7.23413C20.5241 5.91039 19.7196 4.70835 18.7045 3.69754H18.705Z" fill="white"/>
</g>

</symbol><symbol id="icon-s-whatsApp" viewBox="0 0 25 25">
<rect width="25" height="25" rx="4" fill="white"/>
<path fill-rule="evenodd" clip-rule="evenodd" d="M15.9366 13.9888C15.7496 13.8957 14.8322 13.4467 14.6613 13.3843C14.4904 13.3226 14.366 13.2919 14.241 13.4781C14.1167 13.6632 13.7594 14.0818 13.6508 14.2056C13.5415 14.33 13.4329 14.345 13.2466 14.2526C13.0599 14.1589 12.4584 13.9629 11.7455 13.3308C11.1909 12.8382 10.8162 12.23 10.7076 12.0439C10.5987 11.8581 10.6956 11.7575 10.7891 11.6651C10.873 11.5819 10.9755 11.4483 11.069 11.3399C11.1628 11.2312 11.1933 11.1538 11.2557 11.0297C11.3184 10.9056 11.2868 10.7975 11.2399 10.7044C11.1933 10.6114 10.8203 9.69672 10.6644 9.32513C10.5134 8.96309 10.3596 9.01252 10.2451 9.00638C10.1259 9.00159 10.0065 8.99943 9.88717 8.99991C9.76283 8.99991 9.56072 9.04627 9.38979 9.23241C9.21852 9.4182 8.73655 9.86752 8.73655 10.7818C8.73655 11.6955 9.40486 12.5788 9.49838 12.7032C9.5919 12.8269 10.8141 14.703 12.6862 15.5075C13.1322 15.6988 13.4795 15.813 13.7501 15.8982C14.1972 16.04 14.6041 16.0199 14.9258 15.9718C15.2837 15.9186 16.0298 15.5225 16.1857 15.0889C16.3405 14.6549 16.3405 14.283 16.2942 14.2059C16.2477 14.1282 16.1237 14.0818 15.9366 13.9888ZM17.8148 7.18014C17.1228 6.4869 16.2995 5.93724 15.3925 5.56301C14.4855 5.18877 13.5128 4.99742 12.531 5.00003C8.41523 5.00003 5.06406 8.33411 5.06269 12.4325C5.06077 13.7368 5.40461 15.0186 6.05951 16.1484L5 20L8.95886 18.9664C10.0541 19.5601 11.2814 19.8712 12.5286 19.8711H12.532C16.6478 19.8711 19.9986 16.5371 20 12.4383C20.003 11.4616 19.8114 10.494 19.4363 9.59144C19.0611 8.68889 18.5103 7.86932 17.8148 7.18014Z" fill="black"/>
</symbol><symbol id="icon-s-zero" viewBox="0 0 92 73">
<path d="M26.1705 2.60449C19.9705 2.60449 14.644 5.45336 10.2465 10.8093C4.69552 17.4613 2 26.0108 2 36.2793C2 46.551 4.69726 55.1027 10.2518 61.7557C14.753 67.1476 20.0715 70.0464 26.1705 70.0464C32.2696 70.0464 37.5881 67.1476 42.0893 61.7557C47.6438 55.1027 50.3411 46.551 50.3411 36.2793C50.3411 26.0109 47.6456 17.4614 42.0947 10.8093C37.6971 5.45337 32.3706 2.60449 26.1705 2.60449Z" fill="white" stroke="black" stroke-width="4"/>
<path d="M63.3048 19.8807C64.6394 18.5577 66.276 17.8962 68.2145 17.8962C70.1529 17.8962 71.7895 18.5577 73.1242 19.8807C74.4589 21.2037 75.1262 22.8259 75.1262 24.7474C75.1262 26.6689 74.4589 28.2912 73.1242 29.6142C71.7895 30.9372 70.1529 31.5987 68.2145 31.5987C66.276 31.5987 64.6394 30.9372 63.3048 29.6142C61.9701 28.2912 61.3027 26.6689 61.3027 24.7474C61.3027 22.8259 61.9701 21.2037 63.3048 19.8807ZM68.2145 28.9999C69.3585 28.9999 70.3118 28.5904 71.0745 27.7714C71.869 26.9209 72.2662 25.9129 72.2662 24.7474C72.2662 23.5819 71.869 22.5897 71.0745 21.7707C70.3118 20.9202 69.3585 20.4949 68.2145 20.4949C67.1022 20.4949 66.1489 20.9202 65.3544 21.7707C64.56 22.5897 64.1628 23.5819 64.1628 24.7474C64.1628 25.9129 64.56 26.9209 65.3544 27.7714C66.1489 28.5904 67.1022 28.9999 68.2145 28.9999ZM67.3808 49.7665C66.8673 49.4664 66.6946 48.8066 66.9952 48.2933L84.4657 18.4663C84.7588 17.9659 85.3984 17.7919 85.9046 18.0749C86.425 18.366 86.6052 19.0276 86.3041 19.5423L68.8531 49.3807C68.553 49.8938 67.8939 50.0665 67.3808 49.7665ZM80.1789 38.3081C81.5136 36.9851 83.1502 36.3236 85.0887 36.3236C87.0271 36.3236 88.6637 36.9851 89.9984 38.3081C91.3331 39.6311 92.0004 41.2534 92.0004 43.1749C92.0004 45.0964 91.3331 46.7186 89.9984 48.0416C88.6637 49.3646 87.0271 50.0261 85.0887 50.0261C83.1502 50.0261 81.5136 49.3646 80.1789 48.0416C78.8443 46.7186 78.1769 45.0964 78.1769 43.1749C78.1769 41.2534 78.8443 39.6311 80.1789 38.3081ZM85.0887 47.4274C86.2327 47.4274 87.186 47.0179 87.9487 46.1989C88.7432 45.3484 89.1404 44.3404 89.1404 43.1749C89.1404 42.0094 88.7432 41.0171 87.9487 40.1981C87.186 39.3476 86.2327 38.9224 85.0887 38.9224C83.9764 38.9224 83.0231 39.3476 82.2286 40.1981C81.4342 41.0171 81.037 42.0094 81.037 43.1749C81.037 44.3404 81.4342 45.3484 82.2286 46.1989C83.0231 47.0179 83.9764 47.4274 85.0887 47.4274Z" fill="black"/>
</symbol></svg>