<svg width="26" height="25" viewBox="0 0 26 25" fill="none" xmlns="http://www.w3.org/2000/svg">
<rect x="0.738281" width="25" height="25" rx="4" fill="white"/>
<path d="M20.847 12.2729L6.40011 5.0288C6.34139 4.99944 6.27404 4.99253 6.21014 5.00807C6.06334 5.04434 5.9718 5.19289 6.00807 5.34143L7.42753 11.2334C7.44998 11.3249 7.51734 11.3992 7.60714 11.4286L14.125 12.5L7.60714 13.5714C7.51734 13.6025 7.44998 13.6751 7.42926 13.7666L6.00807 19.6587C5.99253 19.7226 5.99944 19.79 6.0288 19.847C6.09615 19.9834 6.26195 20.0387 6.40011 19.9713L20.847 12.7686C20.9005 12.7427 20.9437 12.6978 20.9713 12.646C21.0387 12.5078 20.9834 12.342 20.847 12.2729Z" fill="black"/>
</svg>
